<svg width="20" height="20" viewBox="0 0 20 20" fill="none" xmlns="http://www.w3.org/2000/svg">
<g clip-path="url(#clip0)">
<path d="M19.4872 4.10257C19.7704 4.10257 20 3.87298 20 3.58975V0.512822C20 0.229589 19.7704 0 19.4872 0H16.4102C16.127 0 15.8974 0.229589 15.8974 0.512822V1.53847H4.10257V0.512822C4.10257 0.229589 3.87298 0 3.58975 0H0.512822C0.229589 0 0 0.229589 0 0.512822V3.58975C0 3.87298 0.229589 4.10257 0.512822 4.10257H1.53847V15.8975H0.512822C0.229589 15.8974 0 16.1271 0 16.4102V19.4872C0 19.7704 0.229589 20 0.512822 20H3.58975C3.87298 20 4.10257 19.7704 4.10257 19.4872V18.4615H15.8975V19.4872C15.8975 19.7704 16.1271 20 16.4103 20H19.4872C19.7705 20 20 19.7704 20 19.4872V16.4102C20 16.127 19.7705 15.8974 19.4872 15.8974H18.4616V4.10257H19.4872ZM17.4359 15.8974H16.4102C16.127 15.8974 15.8974 16.127 15.8974 16.4102V17.4359H4.10257V16.4102C4.10257 16.127 3.87298 15.8974 3.58975 15.8974H2.56411V4.10257H3.58975C3.87298 4.10257 4.10257 3.87298 4.10257 3.58975V2.56411H15.8975V3.58975C15.8975 3.87298 16.1271 4.10257 16.4103 4.10257H17.4359V15.8974H17.4359Z" fill="#636363"/>
</g>
<defs>
<clipPath id="clip0">
<rect width="20" height="20" fill="white"/>
</clipPath>
</defs>
</svg>
