<svg width="21" height="21" viewBox="0 0 21 21" fill="none" xmlns="http://www.w3.org/2000/svg">
<path d="M19.6875 10.4611H1.3125C0.588861 10.4611 0 11.05 0 11.7736C0 12.4972 0.588861 13.0861 1.3125 13.0861H19.6875C20.4111 13.0861 21 12.4972 21 11.7736C21 11.05 20.4111 10.4611 19.6875 10.4611Z" fill="#636363"/>
<path d="M19.8082 12.2277C19.5711 12.1612 19.3331 12.2959 19.2675 12.5287L19.2334 12.6486H1.76748L1.73249 12.5287C1.66687 12.2959 1.42713 12.163 1.19174 12.2277C0.95898 12.2942 0.825105 12.5366 0.891633 12.7684L2.09737 16.9894C2.47098 18.2976 3.68201 19.2111 5.04176 19.2111H15.9574C17.318 19.2111 18.5281 18.2976 18.9018 16.9894L20.1075 12.7684C20.1749 12.5365 20.0401 12.2942 19.8082 12.2277ZM5.04262 17.461C4.45987 17.461 3.94012 17.0699 3.78086 16.509L3.21299 14.5193C3.14651 14.2865 3.28124 14.045 3.51311 13.9785C3.74759 13.912 3.98823 14.0476 4.05386 14.2795L4.62172 16.2693C4.67598 16.4557 4.84833 16.5869 5.04258 16.5869C5.28408 16.5869 5.48009 16.7829 5.48009 17.0244C5.48013 17.2659 5.28412 17.461 5.04262 17.461Z" fill="#636363"/>
<path d="M5.88262 18.3816C5.66651 18.2757 5.40487 18.3606 5.29548 18.5776L4.42049 20.3276C4.31287 20.5437 4.40035 20.8062 4.61651 20.9147C4.68037 20.9462 4.7469 20.9611 4.81252 20.9611C4.97265 20.9611 5.12666 20.8727 5.20365 20.7188L6.07863 18.9687C6.18626 18.7525 6.09873 18.49 5.88262 18.3816Z" fill="#636363"/>
<path d="M16.5795 20.3285L15.7045 18.5784C15.596 18.3614 15.3335 18.2748 15.1174 18.3824C14.9013 18.4909 14.8137 18.7534 14.9214 18.9696L15.7963 20.7196C15.8733 20.8727 16.0273 20.9611 16.1875 20.9611C16.2531 20.9611 16.3196 20.9462 16.3835 20.9156C16.5996 20.8071 16.6871 20.5446 16.5795 20.3285Z" fill="#636363"/>
<path d="M17.5744 0.0389099C17.1281 0.0389099 16.7081 0.213021 16.3923 0.528924L15.0036 1.91755C14.833 2.08817 14.833 2.36556 15.0036 2.53619C15.1743 2.70681 15.4517 2.70681 15.6223 2.53619L17.0109 1.14842C17.1605 0.997937 17.3608 0.914799 17.5787 0.914799C18.018 0.914799 18.375 1.2718 18.375 1.71103V10.8985C18.375 11.14 18.571 11.336 18.8125 11.336C19.054 11.336 19.25 11.14 19.2509 10.8977V1.71017C19.2509 0.788799 18.5019 0.0389099 17.5744 0.0389099Z" fill="#636363"/>
<path d="M16.0597 2.35506L15.1848 1.48008C15.085 1.38033 14.9459 1.33394 14.8041 1.35756L12.6166 1.71633C12.4557 1.74258 12.3235 1.85631 12.2719 2.01033C12.2203 2.16434 12.2596 2.33583 12.3734 2.45219L14.9984 5.15594C15.0816 5.24256 15.1962 5.28895 15.3117 5.28895C15.3528 5.28895 15.3948 5.28284 15.4359 5.27058C15.5916 5.22509 15.7098 5.09647 15.7413 4.9372L16.1788 2.74972C16.2076 2.60706 16.163 2.45916 16.0597 2.35506Z" fill="#636363"/>
<path d="M10.3714 5.3397C10.2008 5.16907 9.92336 5.16907 9.75274 5.3397L8.87775 6.21469C8.70713 6.38531 8.70713 6.6627 8.87775 6.83332C8.96352 6.91818 9.07549 6.96109 9.1875 6.96109C9.29952 6.96109 9.41149 6.91823 9.49639 6.83332L10.3714 5.95834C10.542 5.78767 10.542 5.51032 10.3714 5.3397Z" fill="#636363"/>
<path d="M12.1214 7.08967C11.9508 6.91904 11.6734 6.91904 11.5028 7.08967L10.6278 7.96466C10.4571 8.13528 10.4571 8.41267 10.6278 8.5833C10.7135 8.66816 10.8255 8.71106 10.9375 8.71106C11.0495 8.71106 11.1615 8.6682 11.2464 8.5833L12.1214 7.70831C12.292 7.53768 12.292 7.26029 12.1214 7.08967Z" fill="#636363"/>
<path d="M12.9964 4.46467C12.8258 4.29404 12.5484 4.29404 12.3777 4.46467L11.5028 5.33965C11.3321 5.51028 11.3321 5.78767 11.5028 5.95829C11.5885 6.04315 11.7005 6.08606 11.8125 6.08606C11.9245 6.08606 12.0365 6.04319 12.1214 5.95829L12.9964 5.08331C13.167 4.91268 13.167 4.63529 12.9964 4.46467Z" fill="#636363"/>
</svg>
