<svg width="21" height="21" viewBox="0 0 21 21" fill="none" xmlns="http://www.w3.org/2000/svg">
<g clip-path="url(#clip0)">
<path d="M18.7064 6.50641H8.02508C7.50322 6.50641 6.63205 6.70421 6.63205 8.04674V10.1005H20.0994V8.04674C20.0994 6.70842 19.2282 6.50641 18.7064 6.50641Z" fill="#636363"/>
<path d="M3.72815 10.5466H1.69543V3.36683H0.348694V17.2845H1.69543V13.6904H19.6533V17.2803H21V10.5466H3.72815Z" fill="#636363"/>
<path d="M3.93858 10.1847C4.97755 10.1847 5.8198 9.34243 5.8198 8.30346C5.8198 7.26449 4.97755 6.42224 3.93858 6.42224C2.89961 6.42224 2.05736 7.26449 2.05736 8.30346C2.05736 9.34243 2.89961 10.1847 3.93858 10.1847Z" fill="#636363"/>
</g>
<defs>
<clipPath id="clip0">
<rect width="20.6513" height="20.6513" fill="white" transform="translate(0.348694)"/>
</clipPath>
</defs>
</svg>
