<svg width="135" height="19" viewBox="0 0 135 19" fill="none" xmlns="http://www.w3.org/2000/svg">
<path d="M8.72 4.464C10.256 4.464 11.488 4.976 12.416 6C13.344 7.008 13.808 8.4 13.808 10.176V18H9.728V10.728C9.728 9.832 9.496 9.136 9.032 8.64C8.568 8.144 7.944 7.896 7.16 7.896C6.376 7.896 5.752 8.144 5.288 8.64C4.824 9.136 4.592 9.832 4.592 10.728V18H0.488V0.24H4.592V6.408C5.008 5.816 5.576 5.344 6.296 4.992C7.016 4.64 7.824 4.464 8.72 4.464ZM22.7559 18.192C21.4439 18.192 20.2599 17.912 19.2039 17.352C18.1639 16.792 17.3399 15.992 16.7319 14.952C16.1399 13.912 15.8439 12.696 15.8439 11.304C15.8439 9.928 16.1479 8.72 16.7559 7.68C17.3639 6.624 18.1959 5.816 19.2519 5.256C20.3079 4.696 21.4919 4.416 22.8039 4.416C24.1159 4.416 25.2999 4.696 26.3559 5.256C27.4119 5.816 28.2439 6.624 28.8519 7.68C29.4599 8.72 29.7639 9.928 29.7639 11.304C29.7639 12.68 29.4519 13.896 28.8279 14.952C28.2199 15.992 27.3799 16.792 26.3079 17.352C25.2519 17.912 24.0679 18.192 22.7559 18.192ZM22.7559 14.64C23.5399 14.64 24.2039 14.352 24.7479 13.776C25.3079 13.2 25.5879 12.376 25.5879 11.304C25.5879 10.232 25.3159 9.408 24.7719 8.832C24.2439 8.256 23.5879 7.968 22.8039 7.968C22.0039 7.968 21.3399 8.256 20.8119 8.832C20.2839 9.392 20.0199 10.216 20.0199 11.304C20.0199 12.376 20.2759 13.2 20.7879 13.776C21.3159 14.352 21.9719 14.64 22.7559 14.64ZM49.0291 4.464C50.6931 4.464 52.0131 4.968 52.9891 5.976C53.9811 6.984 54.4771 8.384 54.4771 10.176V18H50.3971V10.728C50.3971 9.864 50.1651 9.2 49.7011 8.736C49.2531 8.256 48.6291 8.016 47.8291 8.016C47.0291 8.016 46.3971 8.256 45.9331 8.736C45.4851 9.2 45.2611 9.864 45.2611 10.728V18H41.1811V10.728C41.1811 9.864 40.9491 9.2 40.4851 8.736C40.0371 8.256 39.4131 8.016 38.6131 8.016C37.8131 8.016 37.1811 8.256 36.7171 8.736C36.2691 9.2 36.0451 9.864 36.0451 10.728V18H31.9411V4.608H36.0451V6.288C36.4611 5.728 37.0051 5.288 37.6771 4.968C38.3491 4.632 39.1091 4.464 39.9571 4.464C40.9651 4.464 41.8611 4.68 42.6451 5.112C43.4451 5.544 44.0691 6.16 44.5171 6.96C44.9811 6.224 45.6131 5.624 46.4131 5.16C47.2131 4.696 48.0851 4.464 49.0291 4.464ZM69.9714 11.088C69.9714 11.472 69.9474 11.872 69.8994 12.288H60.6114C60.6754 13.12 60.9394 13.76 61.4034 14.208C61.8834 14.64 62.4674 14.856 63.1554 14.856C64.1794 14.856 64.8914 14.424 65.2914 13.56H69.6594C69.4354 14.44 69.0274 15.232 68.4354 15.936C67.8594 16.64 67.1314 17.192 66.2514 17.592C65.3714 17.992 64.3874 18.192 63.2994 18.192C61.9874 18.192 60.8194 17.912 59.7954 17.352C58.7714 16.792 57.9714 15.992 57.3954 14.952C56.8194 13.912 56.5314 12.696 56.5314 11.304C56.5314 9.912 56.8114 8.696 57.3714 7.656C57.9474 6.616 58.7474 5.816 59.7714 5.256C60.7954 4.696 61.9714 4.416 63.2994 4.416C64.5954 4.416 65.7474 4.688 66.7554 5.232C67.7634 5.776 68.5474 6.552 69.1074 7.56C69.6834 8.568 69.9714 9.744 69.9714 11.088ZM65.7714 10.008C65.7714 9.304 65.5314 8.744 65.0514 8.328C64.5714 7.912 63.9714 7.704 63.2514 7.704C62.5634 7.704 61.9794 7.904 61.4994 8.304C61.0354 8.704 60.7474 9.272 60.6354 10.008H65.7714ZM76.2404 6.504C76.6244 5.88 77.1764 5.376 77.8964 4.992C78.6164 4.608 79.4404 4.416 80.3684 4.416C81.4724 4.416 82.4724 4.696 83.3684 5.256C84.2644 5.816 84.9684 6.616 85.4804 7.656C86.0084 8.696 86.2724 9.904 86.2724 11.28C86.2724 12.656 86.0084 13.872 85.4804 14.928C84.9684 15.968 84.2644 16.776 83.3684 17.352C82.4724 17.912 81.4724 18.192 80.3684 18.192C79.4244 18.192 78.6004 18.008 77.8964 17.64C77.1924 17.256 76.6404 16.752 76.2404 16.128V18H72.1364V0.24H76.2404V6.504ZM82.0964 11.28C82.0964 10.256 81.8084 9.456 81.2324 8.88C80.6724 8.288 79.9764 7.992 79.1444 7.992C78.3284 7.992 77.6324 8.288 77.0564 8.88C76.4964 9.472 76.2164 10.28 76.2164 11.304C76.2164 12.328 76.4964 13.136 77.0564 13.728C77.6324 14.32 78.3284 14.616 79.1444 14.616C79.9604 14.616 80.6564 14.32 81.2324 13.728C81.8084 13.12 82.0964 12.304 82.0964 11.28ZM87.6095 11.28C87.6095 9.904 87.8655 8.696 88.3775 7.656C88.9055 6.616 89.6175 5.816 90.5135 5.256C91.4095 4.696 92.4095 4.416 93.5135 4.416C94.4575 4.416 95.2815 4.608 95.9855 4.992C96.7055 5.376 97.2575 5.88 97.6415 6.504V4.608H101.746V18H97.6415V16.104C97.2415 16.728 96.6815 17.232 95.9615 17.616C95.2575 18 94.4335 18.192 93.4895 18.192C92.4015 18.192 91.4095 17.912 90.5135 17.352C89.6175 16.776 88.9055 15.968 88.3775 14.928C87.8655 13.872 87.6095 12.656 87.6095 11.28ZM97.6415 11.304C97.6415 10.28 97.3535 9.472 96.7775 8.88C96.2175 8.288 95.5295 7.992 94.7135 7.992C93.8975 7.992 93.2015 8.288 92.6255 8.88C92.0655 9.456 91.7855 10.256 91.7855 11.28C91.7855 12.304 92.0655 13.12 92.6255 13.728C93.2015 14.32 93.8975 14.616 94.7135 14.616C95.5295 14.616 96.2175 14.32 96.7775 13.728C97.3535 13.136 97.6415 12.328 97.6415 11.304ZM108.819 6.504C109.203 5.88 109.755 5.376 110.475 4.992C111.195 4.608 112.019 4.416 112.947 4.416C114.051 4.416 115.051 4.696 115.947 5.256C116.843 5.816 117.547 6.616 118.059 7.656C118.587 8.696 118.851 9.904 118.851 11.28C118.851 12.656 118.587 13.872 118.059 14.928C117.547 15.968 116.843 16.776 115.947 17.352C115.051 17.912 114.051 18.192 112.947 18.192C112.003 18.192 111.179 18.008 110.475 17.64C109.771 17.256 109.219 16.752 108.819 16.128V18H104.715V0.24H108.819V6.504ZM114.675 11.28C114.675 10.256 114.387 9.456 113.811 8.88C113.251 8.288 112.555 7.992 111.723 7.992C110.907 7.992 110.211 8.288 109.635 8.88C109.075 9.472 108.795 10.28 108.795 11.304C108.795 12.328 109.075 13.136 109.635 13.728C110.211 14.32 110.907 14.616 111.723 14.616C112.539 14.616 113.235 14.32 113.811 13.728C114.387 13.12 114.675 12.304 114.675 11.28ZM120.188 11.28C120.188 9.904 120.444 8.696 120.956 7.656C121.484 6.616 122.196 5.816 123.092 5.256C123.988 4.696 124.988 4.416 126.092 4.416C127.036 4.416 127.86 4.608 128.564 4.992C129.284 5.376 129.836 5.88 130.22 6.504V4.608H134.324V18H130.22V16.104C129.82 16.728 129.26 17.232 128.54 17.616C127.836 18 127.012 18.192 126.068 18.192C124.98 18.192 123.988 17.912 123.092 17.352C122.196 16.776 121.484 15.968 120.956 14.928C120.444 13.872 120.188 12.656 120.188 11.28ZM130.22 11.304C130.22 10.28 129.932 9.472 129.356 8.88C128.796 8.288 128.108 7.992 127.292 7.992C126.476 7.992 125.78 8.288 125.204 8.88C124.644 9.456 124.364 10.256 124.364 11.28C124.364 12.304 124.644 13.12 125.204 13.728C125.78 14.32 126.476 14.616 127.292 14.616C128.108 14.616 128.796 14.32 129.356 13.728C129.932 13.136 130.22 12.328 130.22 11.304Z" fill="black"/>
</svg>
