<?xml version="1.0" encoding="UTF-8"?>
<svg id="Layer_2" data-name="Layer 2" xmlns="http://www.w3.org/2000/svg" viewBox="0 0 660.79 434.95">
  <defs>
    <style>
      .cls-1 {
        fill: #00a144;
      }

      .cls-1, .cls-2 {
        stroke-width: 0px;
      }

      .cls-2 {
        fill: #002f87;
      }
    </style>
  </defs>
  <g id="Layer_1-2" data-name="Layer 1">
    <g>
      <g>
        <g>
          <path class="cls-1" d="M263.95,247.59c-.16-.5-.22-.77-.22-.82,0-.68.16-1.05,1.08-1.05,1.09,0,.81,1.36,2.71,4.23,2.28,3.36,5.75,5.36,9.17,5.36,4.13,0,7.43-2.27,7.43-6s-3.15-4.5-8.9-6.59c-6.62-2.36-10.75-3.82-10.75-9.73,0-4.59,4.18-8.68,10.69-8.68,4.18,0,6.19,1.55,8.14,1.55,1.3,0,1.74-.59,2.28-.59.76,0,.98.32.98,1,0,.5-.11,1-.11,1.59,0,2.09.76,4.27.76,5.86,0,.68-.16.95-.81.95-1.57,0-.65-1.32-2.77-4.27-1.9-2.59-5.32-4.18-8.74-4.18s-6.02,2-6.02,4.45c0,2.82,2.5,4.23,7.6,5.86,3.64,1.18,6.57,1.96,8.52,3.55,2.12,1.73,3.26,4.14,3.26,7.05,0,6.27-4.99,10.27-11.89,10.27-3.64,0-6.19-1.32-8.36-1.59-2.01-.27-1.9-.09-2.33-1.68l-1.74-6.54Z"/>
          <path class="cls-1" d="M297.12,235.75c-1.41-1.08-3.4-.33-3.4-1.41,0-.43.35-.69,1.02-.69.35,0,2.58.26,6.77.26,5.67,0,9.35-.26,11.07-.26,1.33,0,1.56.1,1.56,1.18v.69c0,1.61.04,2.55.04,2.78,0,.49-.08.65-.62.65-1.06,0-.47-.92-1.02-1.9-.82-1.41-2.66-1.87-6.53-1.87-2.31,0-3.17.46-3.17,1.9v5.11c0,.98.47,1.37,1.68,1.37h1.25c1.68,0,2.66-.26,3.44-1.11.74-.85.74-1.87,1.68-1.87.47,0,.62.23.62.69,0,.2-.16.98-.16,2.49,0,2.46.31,3.87.31,4.26,0,.43-.23.62-.66.62-.98,0-.59-.79-1.06-1.87-.63-1.37-1.68-1.7-3.95-1.7h-1.52c-1.45,0-1.64.49-1.64,1.83v5.11c0,2.33.19,3.01,3.13,3.01,2.62,0,5.36-.75,6.96-1.9,1.68-1.18,1.68-2.32,2.46-2.32.31,0,.55.26.55.66,0,.69-.55,2.39-1.52,3.57-1.09,1.31-2.74,1.87-5.16,1.87-1.88,0-4.34-.29-7.31-.29-3.32,0-5.44.29-6.18.29-.63,0-.94-.23-.94-.59,0-.75.82-.79,1.8-1.28,1.09-.59,1.56-1.57,1.56-3.08v-12.84c0-1.6-.04-2.59-1.06-3.37"/>
          <path class="cls-1" d="M332.98,233.59c.15-.3.23-.46.62-.46.27,0,.55.23.74.59l9.97,19.52c.55,1.08,1.09,1.74,2.35,2.1,1.06.3,1.45.23,1.45.92,0,.56-.16.62-.7.62-1.02,0-2.89-.29-5.51-.29-2.93,0-4.57.33-4.97.33-.35,0-.62-.29-.62-.69,0-.92,2.82-.59,2.82-2.55,0-.39-.12-.92-.39-1.44l-1.09-2.19c-.66-1.34-1.13-1.41-2.7-1.41h-5.51c-1.76,0-2.42,0-3.05,1.41l-1.06,2.49c-.19.43-.31.78-.31,1.11,0,.98.9,1.57,2.7,1.87.94.16,1.56.23,1.56.75,0,.46-.31.69-.9.69-.82,0-2.54-.33-5.04-.33-1.88,0-2.97.29-3.4.29-.55,0-.86-.23-.86-.66,0-.69.86-.62,1.64-1.05,1.06-.59,1.64-1.57,2.42-3.05l9.86-18.57ZM334.58,246.98c.86,0,1.25-.16,1.25-.43,0-.07-.08-.43-.35-.98l-2.78-5.53c-.19-.43-.43-.62-.59-.62-.19,0-.43.16-.59.49l-2.93,5.76c-.2.39-.27.69-.27.82,0,.43.51.49,1.76.49h4.5Z"/>
          <path class="cls-1" d="M355.11,235.62c-3.21,0-5.01.2-5.83,1.74-.98,1.77-.59,2.72-1.76,2.72-.43,0-.62-.23-.62-.72,0-.3.43-1.77.66-4.36.08-1.05.16-1.34,1.13-1.34,1.06,0,3.25.2,6.45.2h9.27c3.36,0,5.63-.2,6.88-.2,1.09,0,1.41.07,1.49.98l.31,3.34v.29c0,.62,0,.72-.55.72-1.06,0-.7-.69-1.41-1.83-.78-1.28-2.19-1.51-5.32-1.51h-.31c-2.5,0-2.97.03-2.97,1.57v14.64c0,1.7.51,2.68,2.11,3.28,1.13.43,2.54.16,2.54,1.08,0,.46-.35.69-1.02.69-.98,0-2.86-.29-5.55-.29-2.86,0-5.05.33-6.3.33-.7,0-1.1-.3-1.1-.69,0-.79,1.1-.62,2.31-1.05,1.52-.52,2.15-1.57,2.15-3.24v-14.83c0-1.38-.27-1.51-2.58-1.51"/>
          <path class="cls-1" d="M389.4,233.26c8.33,0,14.19,5.11,14.19,11.72,0,6.94-6.14,12.31-15.13,12.31-8.21,0-14.08-5.04-14.08-11.79s6.18-12.25,15.02-12.25M389.48,255.76c5.47,0,9.15-3.24,9.15-8.94,0-7.2-4.34-12.02-10.17-12.02-5.51,0-9.07,3.24-9.07,9.2,0,6.94,3.99,11.76,10.09,11.76"/>
          <path class="cls-1" d="M411.19,233.32c0-2.77-.36-4.59-1.37-5.59-1.78-1.82-3.6-.46-3.6-2,0-.77.27-.95.91-.95.82,0,1.73.23,2.74.23,1.37,0,2.69-.23,3.92-.23s1.59.45,2.83,1.91l15.68,18.77c.87,1.04,1.51,1.5,1.82,1.5.46,0,.64-.73.64-2.18v-11.59c0-2.77-.23-4.68-1.78-5.68-2.19-1.41-4.01-.64-4.01-1.91,0-.54.32-.82,1-.82,1.09,0,2.6.32,4.42.32,2.46,0,4.42-.36,5.65-.36.64,0,.91.18.91.82,0,1.09-1.19.77-2.33,1.68-1.41,1.09-1.51,2.59-1.55,5.23l-.27,23.05c0,1.27-.18,1.91-.59,1.91-.87,0-1.46-.86-2.55-2.14l-18.74-22.09c-.46-.55-.96-.86-1.09-.86-.36,0-.55.64-.55,1.91v10.59c0,4.77.04,7.77,1.5,9.27,1.37,1.36,4.06.5,4.06,2,0,.86-.32.96-1.19.96-.73,0-2.32-.46-4.79-.46-2.64,0-4.38.41-5.15.41-.59,0-.87-.41-.87-1.09,0-1.04,1.92-.64,2.96-1.95.82-1,1.37-4.09,1.37-9.23v-11.41Z"/>
        </g>
        <g>
          <path class="cls-1" d="M505.88,176.48s-.34-6.32-4.61-9.72c0,0,6.5,3.83,12.32,3,0,0-9.39-2.48-16.19-7.34-6.8-4.86-9.38-5.9-13.9-7.33,0,0,7.48-.47,14.14-2.34,9.03-2.53,28.58.79,38.29,14.15,0,0-1.99-5.67-9.59-10.92,0,0,3.5-3.98,9.78-2.89,0,0-3.21-2.83-11.99,1.18,0,0-8.29-4.34-17.91-4.99-9.62-.65-19.62,3.92-27.85,2.45-7.44-1.33-11.54-6.7-18.69-8.17,7-3.87,11.68-8.07,14.19-10.98,3.11-3.6,7.61-8.42,12.09-9.44,5.47-1.24,4.73-1.25,12.76.5,9.11,1.99,12.1-1.49,12.1-1.49-5.37,3.14-11.36-.91-16.9-1.99-8.28-1.33-11.27.87-11.27.87,4.85-11.68,13.54-12.05,13.54-12.05-8.2-.75-12.92,6.83-12.92,6.83.62-4.35-.62-6.83-.62-6.83-.25,16.9-21.12,29.08-31.06,33.3-7.77,3.3-21.98,1.19-34.29-.36,6.63-2.78,11.29-6.51,11.29-6.51,9.4,2.25,11.99-1.15,11.99-1.15-5.95,2.28-10.16-.95-10.16-.95,6.45-6.62,7.31-12.57,7.31-12.57-5.28,11.39-17.25,18.16-26.8,20.44-1.15-.12-2.27-.22-3.34-.3-13.54-1-17.69,3.77-19.55,2.65-1.86-1.12-.66-6.96.66-9.44,4-7.5,13.84-15.31,26.01-16.4,16.57-1.49,25.93-8.82,25.93-8.82,3.6.75,11.9.97,20.63-.62,3.64-.66,8.12-2.15,16.57-8.28,8.5-6.17,16.57-6.46,16.57-6.46-8.45-1.16-14.75,3.2-23.94,8.41-12.05,6.83-27.34,3.98-27.34,3.98,6.46-5.59,10.93-13.3,16.9-23.36,5.96-10.06,17.64-10.93,17.64-10.93-8.7-1.86-17.4,6.34-17.4,6.34,1.24-6.21,0-9.32,0-9.32-2.15,18.6-14.41,29.95-23.36,36.66-8.95,6.71-24.02,6.42-35.62,10.11-7.55,2.4-13.21,8.16-13.21,8.16-.12-4.1,2.86-11.31,6.46-14.41,3.6-3.11,6.09-4.35,10.81-6.46,4.72-2.11,7.58-3.6,12.43-5.59,5.22-2.14,10.93-1.49,10.93-1.49-4.22-2.24-9.2-.5-9.2-.5,5.34-3.85,5.59-8.45,5.59-8.45-4.47,10.19-23.73,12.18-31.68,17.77-10.13,6.03-13.6,20.77-18.27,35.54-2.97,9.39-7.83,11.89-17.93,20.5-9.47,8.07-9.61,15.24-9.61,15.24-8.95-10.94-12.26-22.78-7.29-38.44,4.97-15.66,15.04-29.82,18.89-33.8,3.85-3.98,15.57-13.25,24.19-17.89,7.89-4.25,15.86-1.9,26.67-2.78,10.81-.87,21.12-5.59,28.21-16.15,7.08-10.56,13.05-11.43,13.05-11.43,0,0-7.33-.12-14.66,9.94-13.3,17.15-35.91,13.3-35.91,13.3,0,0,4.85-1.86,6.34-7.95,1.49-6.09-.25-8.95,2.24-18.27,2.48-9.32,10.44-14.29,10.44-14.29-13.92,7.7-14.16,20.75-14.41,26.72-.25,5.96-4.72,13.42-11.8,13.05-7.08-.37-14.29,2.48-16.77,4.1-2.48,1.62-2.61.37-2.61.37,4.47-7.46,4.97-15.78,3.98-27.71,3.6-5.96,9.32-8.2,16.15-10.44,6.83-2.24,7.58-7.08,7.58-7.08-1.74,3.11-6.59,5.22-9.2,5.84-2.61.62-9.44,1.49-14.04,6.21-2.73,3.36-3.85-.62-3.85-.62-.54-1.24-1.08-2.42-1.64-3.56.2-5.54,1.42-15.1,7.09-20.66,0,0-7.81,3.74-9.1,16.84-7.59-13.6-15.49-17.85-15.49-17.85,3.11,2.73,10.09,11.67,13.17,18.27,4.47,9.57,8.57,22.36,1.99,36.16-3.76,7.87-7.52,11.83-10.85,14.63-1.49,1.26-3.84.4-4.04-1.54-.38-3.54-1.5-6.91-3.66-10.57-3.23-5.47-3.57-10.3-1.95-14.33,3.11-7.7,9.32-8.82,9.32-8.82-3.48-.62-7.7,3.11-7.7,3.11,3.6-6.34,2.37-8.3,1.99-8.57.12,2.98-2.57,5.55-6.34,12.8-1.62,3.11-2.24,9.69-2.24,9.69-4.18-4.47-12.09-7.58-18.93-9.94-3.98-1.37-10.02-4.1-12.51-9.2-2.48-5.09,1.12-16.15,2.48-16.65,1.37-.5,7.21-.37,10.06-6.71,2.86-6.34,8.33-6.34,8.33-6.34-3.73-.87-7.58,1-9.94,5.34-2.36,4.35-6.83,4.85-7.21,4.47,0,0,2.73-3.6,2.61-8.2-.12-6.83,3.36-10.19,3.36-10.19-4.22,2.36-4.6,7.95-4.6,7.95-1.49-4.97-6.46-4.35-6.46-4.35,0,0,4.47.25,5.72,5.59,1.37,5.47-2.98,9.32-5.84,15.04-4.1,8.7-.87,15.78-4.6,13.42-3.73-2.36-7.58-6.21-13.42-14.29-5.84-8.08-10.31-7.83-10.31-7.83,5.34,1.62,8.08,7.46,11.06,12.3,2.98,4.85,7.83,10.93,13.05,14.66,5.71,4.08,10.21,6.55,12.72,7.8.5.25.4,1-.15,1.1-1.93.38-4.87,1.66-8.72,2.28-5.63.91-9.44-.37-9.44-.37,4.22,2.86,11.43,1.99,11.43,1.99-6.96,2.24-9.2,8.08-9.2,8.08,9.2-10.06,22.54-9.39,28.33-7.46,6.71,2.24,14.27,9.48,14.45,20.71.17,10.4-5.02,16.64-8.95,22.53-2.9,4.35-7.95,13.75-9.73,20.38-.86,3.2-2.27,9.14-4.6,7.33-2.24-1.74-6-10.75-10.02-17.27-6.13-9.94-15.57-18.64-19.55-24.85-3.98-6.21-4.76-15.08-6.13-19.55-2.75-8.99-11.27-21.08-11.27-21.08,1.86-16.28-4.97-20.75-4.97-20.75,4.22,8.95,1.82,16.15,1.82,16.15-5.72-7.46-9.77-8.45-14.25-12.43-4.47-3.98-2.36-9.07-2.36-9.07-2.36,2.61-1,8.45-1,8.45-7.08-2.61-10.19-.25-10.19-.25,0,0,6.09-1.62,15.9,5.09,9.82,6.71,13.54,18.47,13.54,18.47-3.23,1.62-8.95,2.78-14.66.54-5.72-2.24-6.21-8.08-6.21-8.08.12,5.96,2.86,8.2,2.86,8.2-5.34-.87-7.46,1.24-7.46,1.24,7.95-.37,11.31,1.24,16.9,2.86,4.86,1.4,10.94.5,10.94.5,3.35,2.98,11.18,27.96,1.61,22.24-9.57-5.72-23.11-5.55-26.34-6.79-7.08-1.86-13.05-5.76-18.76-11.97-5.69-6.18-3.11-15.78-3.11-15.78-3.6,4.35-1,13.17-1,13.17-7.7-2.98-14.29-.37-14.29-.37,3.98-.25,10.5-.29,15.41,2.98,3.73,2.48,4.35,4.97,10.31,10.56,5.96,5.59,19.38,7.21,19.38,7.21,0,0-20.87,10.69-34.54,2.24-15.04-10.19-25.1-8.37-25.1-8.37,7.46.12,15.28,3.52,23.98,10.23,12.3,9.44,30.32,2.07,35.66,1.2,5.34-.87,9.82-2.32,20.5,2.9,10.69,5.22,20.13,18.14,19.38,20.63-.25,1.49-5.1-1.62-14.04-1.12-5.85.32-9.83,1.62-15.66,2.73-11.68,2.24-21.62-1.62-21.62-1.62,19.05,10.6,32.64,3.5,38.1,3.64,6.3.17,19.76,2.05,23.69,13.42,5.01,14.5,14.99,25.55,14.99,25.55-16.98-12.47-36.2-17.1-52.77-18.76-10.83-1.08-22.7-4.64-28.16-9.11-5.47-4.47-10.98-7.29-15.08-13.75-4.1-6.46-11.35-8.45-11.35-8.45,0-10.56-8.45-12.92-8.45-12.92,7.7,4.72,5.47,12.3,5.47,12.3-2.48-1.37-6.96-.25-13.42-2.86-6.46-2.61-6.21-10.56-6.21-10.56-1.24,7.33,3.6,10.94,3.6,10.94-6.46.62-12.8-1.24-12.8-1.24,5.96,3.98,13.54,1.86,26.59,5.34,10.54,2.81,12.44,8.1,14.16,11.39.67,1.28.06,2.48-1.38,2.6-.91.08-2.14.08-4.01-.07-4.47-.37-7.04-1.24-7.04-1.24-6.09-4.85-9.69-4.22-9.69-4.22,6.09,1.24,8.82,6.46,8.82,6.46-8.32,0-10.31,2.11-10.31,2.11,6.96-1.86,19.88-.25,25.22,1.12,5.34,1.37,10.19,4.85,13.79,8.45,3.6,3.6,10.68,5.59,10.68,5.59-3.23.25-7.21,1.74-10.44,4.35-3.23,2.61-9.19,4.35-13.17,3.98-3.98-.37-5.47-1.86-12.8-2.73-7.33-.87-15.9-4.85-18.14-7.46-7.83-5.47-9.57-14.54-9.57-18.51s-1.86-5.47-2.24-5.84c-.87-.87,1.5,2.7,1.12,5.96-.37,3.23,0,5.59,0,5.59-7.46-8.57-14.16-9.94-14.16-9.94,9.94,5.09,13.5,12.14,15.78,17.15,1.56,3.43,3.33,5.95,4.72,7.61.71.85.09,2.12-1.02,2.07-5.98-.25-13.95,1.06-16.63.75-3.23-.37-5.34-1.24-8.2-5.96-2.86-4.72-.62-10.44-.62-10.44-2.98,3.23-1.49,9.07-1.49,9.07-4.22-2.61-6.71-.5-6.71-.5,0,0,5.1-.37,6.83,2.11,1.74,2.49,4.6,6.21,4.6,6.21-1.24,0-3.98,1.86-6.59,3.85-2.61,1.99-7.33,2.24-7.33,2.24,2.61.87,6.71-.62,6.71-.62-4.47,3.23-4.35,6.83-4.35,6.83,5.22-10.44,22.36-9.69,26.84-9.69s13.67,1.74,22.12,2.73c8.45.99,16.39,3.41,12.67,3.98-10.35,1.57-13.92,4.97-18.39,7.21-4.47,2.24-12.92-.5-12.92-.5,7.7,4.22,11.93,2.73,11.93,2.73-5.22,5.72-5.47,11.18-5.47,11.18.5-2.24,6.12-8.4,9.86-11.1,2.98-2.15,10.44-4.8,16.57-5.3,10.58-.86,13.55-1.68,16.4-2.82,4.85-1.94,12.18-6.46,17.89-7.95,5.72-1.49,12.47-.25,19.05.5,23.36,3.48,55,24.85,57.65,46.06,1.15,9.18-3.42,17.09-7.44,22.11-2.23.57-9.85,2.06-32.24,3.59v.57h105.9v-.74c-13.85-.87-25.34-1.9-32.35-3.13-.12-10.86-6.57-22.87-8.35-29.69-3.64-13.92,3.19-26.38,20.34-36.94,17.15-10.56,31.19-6.34,39.39-6.46,7.45-.11,21.15.99,31.14-2.16,2.54.14,5.43.65,8.31,1.89,4.65,2.02,12.26,5.7,17.62,7.24,5.37,1.54,21.95,4.65,28.55,20.04"/>
          <path class="cls-1" d="M512.82,187.54s-2.84,4.13.4,8.76c3.16,4.5,7.79,4.4,9.83,4.52,0,0-1.55-2.01-1.7-6.1-.13-3.65-3.61-8.26-8.54-7.19"/>
          <path class="cls-1" d="M518.27,175.26c-5.22-2.17-8.74,1.82-8.74,1.82-.08,5.35,5.17,7.77,8.81,6.97,4.07-.89,6.37.2,6.37.2-.53-2.07-1.35-6.88-6.43-8.99"/>
          <path class="cls-1" d="M535.97,168.99c-4.54,3.02-2.96,9.05.26,10.29,5.77,2.22,5.11,5.94,5.11,5.94,2.59-.67,7.4-7.1,4.2-12.61-3-5.17-9.58-3.62-9.58-3.62"/>
          <path class="cls-1" d="M506.8,179.52c-4.65-1.86-8.39,2.49-7.64,5.57,1.34,5.52-1.82,6.97-1.82,6.97,1.86,1.61,9.23,1.89,11.72-3.41,2.34-4.97-2.26-9.13-2.26-9.13"/>
          <path class="cls-1" d="M526.88,164.59c-3.49-1.84-9.53-.85-10.96,4.64,0,0,2.47,5.06,8.41,4.32,5.78-.72,7.98-5.4,9.1-7.37,0,0-2.65.46-6.56-1.59"/>
          <path class="cls-1" d="M533.73,148.81s4.73,1.91,8.29-2.2c3.46-3.99,2.1-8.48,1.66-10.48,0,0-1.5,1.92-5.38,2.91-3.47.88-6.94,5.21-4.56,9.78"/>
          <path class="cls-1" d="M545.92,151.69c-5-2.07-8.37,1.74-8.37,1.74-.08,5.13,4.95,7.44,8.43,6.68,3.9-.85,6.09.19,6.09.19-.51-1.98-1.29-6.59-6.16-8.6"/>
          <path class="cls-1" d="M272.09,37.36s5.59-2.48,5.02-8.97c-.55-6.31-5.55-8.88-7.64-10.18,0,0,.4,2.9-1.99,7.06-2.14,3.72-1.3,10.32,4.6,12.09"/>
          <path class="cls-1" d="M299.4,30.67c3.31,3.68,10.85,5.14,14.91-.71,0,0-.71-7.02-8.03-8.73-7.12-1.66-11.73,2.89-13.91,4.72,0,0,3.32.6,7.03,4.72"/>
          <path class="cls-1" d="M327.73,87.33c3.31,3.68,10.85,5.14,14.91-.71,0,0-.71-7.02-8.03-8.73-7.12-1.66-11.73,2.89-13.91,4.72,0,0,3.32.6,7.03,4.72"/>
          <path class="cls-1" d="M232.49,115.22c2.28,4.39,9.21,7.71,14.61,3.07,0,0,1.08-6.98-5.57-10.47-6.47-3.4-12.08-.16-14.65,1.06,0,0,3.06,1.42,5.61,6.34"/>
          <path class="cls-1" d="M171.7,121.6s-1.54-6.89-9.01-7.72c-7.27-.81-11.3,4.26-13.25,6.34,0,0,3.37.2,7.54,3.85,3.72,3.26,11.39,3.81,14.72-2.47"/>
          <path class="cls-1" d="M368.06,100.08s2.11,2.09,2.74,6.92c.57,4.31,5.31,9.13,11.16,6.91,0,0,2.98-5.45-1.47-10.33-4.33-4.75-9.94-3.74-12.43-3.51"/>
          <path class="cls-1" d="M244.38,52.43c.84,4.01,5.63,8.2,10.97,5.7,0,0,2.41-5.32-2.11-9.59-4.4-4.15-9.6-2.81-11.92-2.41,0,0,2.13,1.81,3.06,6.3"/>
          <path class="cls-1" d="M195.71,66.65c2.41,3.31,8.49,5.17,12.34.7,0,0,.02-5.84-5.86-7.88-5.72-1.98-9.91,1.37-11.86,2.69,0,0,2.68.78,5.38,4.49"/>
          <path class="cls-1" d="M242.23,74.71c2.74.22,6.35-2.07,5.75-5.98,0,0-2.97-2.57-6.58-.46-3.51,2.05-3.63,5.65-3.81,7.22,0,0,1.57-1.03,4.64-.78"/>
          <path class="cls-1" d="M384.88,106.13c3.92-.54,5.1-4.64,4.11-7.21-1.11-2.87-.57-4.67-.57-4.67-1.45.62-4.87,1.75-5.85,5.7-1,4.06,2.3,6.18,2.3,6.18"/>
          <path class="cls-1" d="M191.78,131.68s1.88-.04,4.35,1.8c2.21,1.64,6.48,1.6,8.05-2.03,0,0-1.16-3.75-5.34-3.87-4.06-.12-6.07,2.87-7.06,4.11"/>
          <path class="cls-1" d="M205.1,122.65s.58-3.88-3.13-5.81c-3.61-1.87-6.72-.05-8.14.63,0,0,1.71.78,3.14,3.51,1.28,2.44,5.14,4.26,8.13,1.67"/>
          <path class="cls-1" d="M298.51,84.62c-1.97,3.56-.23,6.71.42,8.16,0,0,.83-1.69,3.59-3.04,2.47-1.21,4.4-5.03,1.88-8.08,0,0-3.87-.68-5.89,2.97"/>
          <path class="cls-1" d="M358.63,18.21c1.67-4.28,4.08-5.72,4.08-5.72-2.23-.78-7.14-2.98-12.18.4-5.18,3.47-3.68,9.13-3.68,9.13,4.86,3.36,10.29.02,11.79-3.81"/>
          <path class="cls-1" d="M283.01,28.08c5.78-1.2,7.12-7.43,5.39-11.15-1.94-4.17-1.31-6.9-1.31-6.9-2.1,1.07-7.08,3.1-8.13,9.08-1.08,6.14,4.05,8.97,4.05,8.97"/>
          <path class="cls-1" d="M258.32,32.47c5.79-.8,7.52-6.86,6.06-10.65-1.64-4.24-.84-6.9-.84-6.9-2.15.91-7.2,2.59-8.63,8.43-1.47,5.99,3.41,9.13,3.41,9.13"/>
          <path class="cls-1" d="M378.04,37.23c4.38,4.31,10.55,1.87,12.77-1.78,2.49-4.09,5.21-5.13,5.21-5.13-2.14-1.2-6.78-4.33-12.56-1.78-5.94,2.62-5.42,8.7-5.42,8.7"/>
          <path class="cls-1" d="M206.2,72.77c-4.34,3.41-3.83,8.28-3.78,10.42,0,0,1.92-1.67,6.1-1.91,3.73-.21,8.15-3.97,6.62-9.12,0,0-4.48-2.89-8.93.61"/>
          <path class="cls-1" d="M300.16,13.88c1.73,3.91,7.53,7.13,12.43,3.42,0,0,1.3-5.96-4.25-9.33-5.4-3.28-10.41-.77-12.69.14,0,0,2.57,1.39,4.5,5.76"/>
          <path class="cls-1" d="M147.25,145.95c3.01,2.94,10.52,1.63,11.55-4.94,0,0-1.62-8.08-8.89-8.78-7.74-.75-12.44,7.86-11.86,11.08,0,0,3.8-2.62,9.2,2.65"/>
          <path class="cls-1" d="M234.51,80.1s-3.52-4.13-8.9-2.01c-5.23,2.06-6.15,6.96-6.73,9.07,0,0,2.36-1.07,6.51-.08,3.7.88,9.11-1.49,9.13-6.97"/>
          <path class="cls-1" d="M334.36,12.43c-3.07,5.72,1.08,10.19,1.08,10.19,6.11.71,9.47-5.02,8.97-9.26-.55-4.75.95-7.25.95-7.25-2.43.37-8.01.76-11,6.32"/>
          <path class="cls-1" d="M380.84,21.06s2.81-5.31-1.56-9.97c-4.25-4.54-9.67-3.49-12.07-3.23,0,0,2.07,1.99,2.74,6.66.61,4.17,5.26,8.76,10.89,6.54"/>
          <path class="cls-1" d="M352.96,41.21c-1.96,5.26,2.11,8.61,2.11,8.61,5.32-.11,7.53-5.41,6.61-8.99-1.03-4.01-.03-6.32-.03-6.32-2.04.6-6.78,1.58-8.69,6.7"/>
          <path class="cls-1" d="M169.86,133.22c2.93,2.89,7.05,1.26,8.55-1.18,1.67-2.73,3.49-3.43,3.49-3.43-1.43-.81-4.53-2.9-8.4-1.2-3.97,1.75-3.63,5.81-3.63,5.81"/>
          <path class="cls-1" d="M145.44,152.67c-4.66,1.09-7.31-.12-7.31-.12.64,2.37,1.66,7.88,7.53,10.21,6.03,2.4,10-2.22,10-2.22.01-6.15-6.06-8.84-10.22-7.86"/>
          <path class="cls-1" d="M141.61,172.39c-3.63,5.17-1.47,10.33-.71,12.67,0,0,1.55-2.47,6.05-4.1,4.02-1.46,7.62-7.04,4.25-12.18,0,0-5.86-1.7-9.59,3.61"/>
          <path class="cls-1" d="M158.86,165.65s-4.62,3.84-2.36,9.81c2.2,5.82,7.61,6.91,9.93,7.58,0,0-1.15-2.63,0-7.2,1.03-4.08-1.52-10.1-7.57-10.19"/>
          <path class="cls-1" d="M295.57,59.11c-5.8-2.9-10.72.08-12.97,1.2,0,0,2.74,1.2,5.09,5.52,2.1,3.86,8.31,6.67,13.01,2.47,0,0,.83-6.21-5.13-9.19"/>
          <path class="cls-1" d="M335.16,6.68c.45-4.53,2.35-6.54,2.35-6.54-2.33-.15-7.59-.92-11.49,3.64-4.01,4.69-1.06,9.68-1.06,9.68,5.53,1.89,9.81-2.74,10.21-6.79"/>
          <path class="cls-1" d="M354.61,70.31c-3.41,5.22.19,9.84.19,9.84,5.79,1.18,9.47-4.03,9.35-8.13-.14-4.6,1.51-6.86,1.51-6.86-2.35.16-7.73.07-11.05,5.15"/>
          <path class="cls-1" d="M279.29,82.21s-1.23-5.97-7.66-6.8c-6.27-.81-9.83,3.51-11.54,5.27,0,0,2.91.23,6.45,3.44,3.17,2.87,9.78,3.47,12.75-1.91"/>
          <path class="cls-1" d="M186.92,186.1c-3.37,5.34-.95,10.39-.07,12.69,0,0,1.43-2.54,5.84-4.41,3.94-1.66,7.26-7.41,3.63-12.38,0,0-5.94-1.4-9.4,4.09"/>
          <path class="cls-1" d="M306.03,102.39c-3.07,5.72,1.08,10.19,1.08,10.19,6.11.7,9.47-5.02,8.97-9.26-.55-4.75.95-7.25.95-7.25-2.43.37-8.01.76-11,6.32"/>
          <path class="cls-1" d="M212.09,140.41c-3.07,5.72,1.08,10.19,1.08,10.19,6.11.7,9.47-5.02,8.97-9.26-.55-4.75.95-7.25.95-7.25-2.43.37-8.01.76-11,6.32"/>
          <path class="cls-1" d="M261.6,111.55c.45-4.53,2.35-6.54,2.35-6.54-2.33-.15-7.59-.92-11.49,3.64-4.01,4.69-1.06,9.68-1.06,9.68,5.53,1.89,9.81-2.74,10.21-6.79"/>
          <path class="cls-1" d="M217.83,67.14c4.95-3.22,3.93-9.51.97-12.35-3.32-3.18-3.74-5.95-3.74-5.95-1.57,1.76-5.47,5.47-4.27,11.42,1.23,6.11,7.04,6.88,7.04,6.88"/>
          <path class="cls-1" d="M185.07,119.76c3.04-5.06-.63-10.28-4.55-11.53-4.38-1.4-5.97-3.71-5.97-3.71-.64,2.27-2.52,7.31,1.17,12.14,3.79,4.95,9.35,3.1,9.35,3.1"/>
          <path class="cls-1" d="M231.91,57.52c5.82-.5,7.87-6.46,6.61-10.32-1.41-4.32-.48-6.93-.48-6.93-2.19.8-7.32,2.22-9.05,7.96-1.78,5.91,2.93,9.29,2.93,9.29"/>
          <path class="cls-1" d="M189.02,164.4s-1.89-5.48-8.06-5.46c-6,.01-8.83,4.52-10.22,6.39,0,0,2.77-.15,6.5,2.45,3.34,2.32,9.64,2.06,11.78-3.38"/>
          <path class="cls-1" d="M349.46,41.09c.57-2.39,2.29-7.71-1.75-12.57-4.16-4.99-9.85-2.81-9.85-2.81-2.94,5.4,1.11,10.66,5.24,11.78,4.62,1.26,6.37,3.59,6.37,3.59"/>
          <path class="cls-1" d="M320.44,46.23c-3.07,5.72,1.08,10.19,1.08,10.19,6.11.71,9.47-5.02,8.97-9.26-.55-4.75.95-7.25.95-7.25-2.43.37-8.01.76-11,6.32"/>
          <path class="cls-1" d="M340.92,62.44c3.76-2.95,6.68-2.97,6.68-2.97-1.58-1.88-4.83-6.44-11.13-6.08-6.48.37-8.13,6.24-8.13,6.24,2.59,5.58,9.22,5.46,12.58,2.82"/>
          <path class="cls-1" d="M468.9,80.87c-7.32,1.71-8.03,8.73-8.03,8.73,4.06,5.85,11.6,4.38,14.91.71,3.71-4.12,7.03-4.72,7.03-4.72-2.18-1.83-6.79-6.38-13.91-4.72"/>
          <path class="cls-1" d="M437.09,78.89c-7.32,1.71-8.03,8.73-8.03,8.73,4.06,5.85,11.6,4.38,14.91.71,3.71-4.12,7.03-4.72,7.03-4.72-2.18-1.83-6.79-6.38-13.91-4.72"/>
          <path class="cls-1" d="M510.84,125.72c-3.19,5.26.62,10.7,4.68,12.02,4.55,1.48,6.19,3.88,6.19,3.88.68-2.36,2.65-7.6-1.16-12.63-3.92-5.17-9.71-3.27-9.71-3.27"/>
          <path class="cls-1" d="M397.46,53.15c-5.8-2.9-10.72.08-12.97,1.2,0,0,2.74,1.2,5.09,5.52,2.1,3.86,8.31,6.67,13.01,2.47,0,0,.83-6.21-5.13-9.19"/>
          <path class="cls-1" d="M513.43,120.76c4.61,3.59,10.17.6,11.86-3.09,1.9-4.13,4.35-5.42,4.35-5.42-2.15-.9-6.88-3.34-12.06-.3-5.32,3.13-4.16,8.81-4.16,8.81"/>
          <path class="cls-1" d="M416.56,57.17c-6.02,2.43-5.69,8.52-5.69,8.52,4.24,4.45,10.49,2.2,12.82-1.38,2.61-4.01,5.37-4.96,5.37-4.96-2.1-1.27-6.64-4.55-12.5-2.18"/>
          <path class="cls-1" d="M505.45,100.76c-6.48.37-8.13,6.24-8.13,6.24,2.59,5.58,9.22,5.46,12.58,2.82,3.76-2.95,6.68-2.97,6.68-2.97-1.58-1.88-4.83-6.44-11.13-6.08"/>
          <path class="cls-1" d="M492.56,137.24c-4.84,4.32-2.48,9.94-2.48,9.94,5.5,2.75,10.61-1.47,11.6-5.63,1.11-4.65,3.38-6.49,3.38-6.49-2.41-.48-7.79-2.03-12.5,2.17"/>
          <path class="cls-1" d="M496.68,90.2s5.59,2.49,10.02-2.27c4.32-4.64,2.88-10.06,2.45-12.49,0,0-1.88,2.24-6.57,3.25-4.19.9-8.54,5.94-5.89,11.51"/>
          <path class="cls-1" d="M479.95,67.34s6.85-1.72,7.48-9.2c.62-7.29-4.56-11.19-6.68-13.08,0,0-.12,3.37-3.66,7.63-3.16,3.8-3.52,11.48,2.85,14.65"/>
          <path class="cls-1" d="M404.43,34.69s6.89,1.55,10.83-4.84c3.84-6.23.98-12.04-.06-14.69,0,0-1.62,2.96-6.71,5.16-4.54,1.97-8.32,8.66-4.06,14.36"/>
          <path class="cls-1" d="M483.96,71.61c1.97,5.57,8.33,6.05,11.79,3.83,3.87-2.49,6.66-2.24,6.66-2.24-1.34-1.94-4.04-6.59-10.1-6.82-6.23-.23-8.34,5.24-8.34,5.24"/>
          <path class="cls-1" d="M453.73,112.47s-1.88,2.24-6.57,3.25c-4.19.9-8.54,5.94-5.89,11.51,0,0,5.59,2.49,10.02-2.27,4.32-4.64,2.88-10.06,2.45-12.49"/>
          <path class="cls-1" d="M410.36,121.04s2.71,1.43,4.78,6.01c1.86,4.09,7.98,7.42,13.09,3.48,0,0,1.31-6.27-4.55-9.75-5.7-3.39-10.94-.71-13.32.27"/>
          <path class="cls-1" d="M454.99,137.82c3.87-2.49,6.66-2.24,6.66-2.24-1.35-1.94-4.04-6.6-10.1-6.82-6.23-.23-8.34,5.24-8.34,5.24,1.97,5.57,8.33,6.05,11.79,3.83"/>
          <path class="cls-1" d="M432.31,29.44c1.27-4.42,3.53-6.07,3.53-6.07-2.29-.57-7.38-2.3-12.1,1.52-4.84,3.93-2.82,9.43-2.82,9.43,5.15,2.89,10.25-.94,11.39-4.88"/>
          <path class="cls-1" d="M398.15,18.68c2.17-4.05,4.73-5.2,4.73-5.2-2.12-1.04-6.74-3.8-12.14-1.05-5.56,2.83-4.74,8.63-4.74,8.63,4.43,3.91,10.22,1.24,12.16-2.39"/>
          <path class="cls-1" d="M436,53.35c.2-2.32,1.09-7.57-3.38-11.57-4.6-4.11-9.66-1.28-9.66-1.28-2.02,5.48,2.52,9.87,6.55,10.36,4.52.55,6.49,2.5,6.49,2.5"/>
          <path class="cls-1" d="M465.93,42.98c.34-4.77,2.28-6.95,2.28-6.95-2.45-.09-8.01-.74-11.98,4.17-4.08,5.05-.83,10.21-.83,10.21,5.87,1.82,10.23-3.18,10.53-7.44"/>
          <path class="cls-1" d="M521.26,126.36c2.55,5.6,9.18,5.52,12.57,2.9,3.79-2.93,6.7-2.93,6.7-2.93-1.57-1.89-4.78-6.47-11.09-6.16-6.48.32-8.17,6.18-8.17,6.18"/>
          <path class="cls-1" d="M433.43,36.05c2.93,5.05,9.2,4.36,12.16,1.57,3.31-3.12,6.06-3.4,6.06-3.4-1.66-1.64-5.13-5.68-11.07-4.79-6.1.91-7.15,6.61-7.15,6.61"/>
          <path class="cls-1" d="M476.99,120.05s-1.05-5.7-7.15-6.61c-5.94-.89-9.41,3.15-11.07,4.79,0,0,2.76.27,6.06,3.4,2.95,2.79,9.22,3.48,12.16-1.57"/>
          <path class="cls-1" d="M458.44,53.32c-3.89,4.76-.88,10.68,2.96,12.55,4.3,2.1,5.59,4.71,5.59,4.71,1-2.24,3.68-7.16.61-12.67-3.16-5.67-9.16-4.59-9.16-4.59"/>
          <path class="cls-1" d="M198.27,98.92c4.22,3.36,9.38.65,10.98-2.75,1.79-3.8,4.07-4.96,4.07-4.96-1.98-.85-6.32-3.15-11.13-.39-4.94,2.84-3.92,8.09-3.92,8.09"/>
          <path class="cls-1" d="M197.69,89.25s3.52-4.98-.29-10.24c-3.7-5.12-9.29-4.76-11.74-4.8,0,0,1.82,2.27,1.91,7.06.07,4.27,4.17,9.5,10.12,7.99"/>
          <path class="cls-1" d="M182.74,98.49c2.56,3.34,8.86,5.08,12.69.39,0,0-.14-6-6.23-7.94-5.93-1.88-10.14,1.67-12.11,3.08,0,0,2.78.73,5.65,4.47"/>
        </g>
        <g>
          <path class="cls-2" d="M139.36,237.57c-.16-.38-.44-.68-.8-.85-.7-.35-1.36-.11-1.66,0l-.26.07c-.36.1-.54.15-.76.15l-.35.05c-.79.21-1.48.61-2.01,1.17-.17.18-.35.38-.53.59-.31.36-.64.73-.9.96-1.38,1-2.85,1.99-4.37,2.1-2.01.11-3.95-.14-6.25-.79.38-2.14.67-4.23.95-6.26.16-1.15.32-2.3.5-3.49.95-7.97.69-15.04-.77-21.6-1.23-5.36-2.99-9.07-5.63-11.98-1.92-2.34-4.39-3.74-7.3-4.15-1.59-.28-3.18-.42-4.81-.42h0c-6.03-.12-12.2,3.57-15.66,9.46-2.53,4.18-3.81,8.93-3.81,14.15.26,6.51,2.54,11.86,6.78,15.9,3.25,3.07,7.14,5.72,12.6,8.6,3.59,2.03,7.34,3.58,11.15,4.62,0,.01,0,.02,0,.03l-.11.33c-.63,3.29-1.62,6.64-2.59,9.87l-.49,1.64c-2.47,7.5-4.98,14.03-7.67,19.95-3.4,7.56-7.36,15.15-11.77,22.57-2.53,4.28-5.61,9.26-9.33,13.72-3.28,3.89-6.46,6.95-9.79,9.41-1.64,1.34-3.44,1.81-5.85,1.53-2.19-.21-4.16-1.2-6.01-3.02-2.18-2.18-4.01-5.19-5.3-8.72-2.23-5.71-3.07-12.45-2.65-21.23.24-5.86.87-11.86,1.86-17.85.72-5.19,1.81-10.37,3.31-15.79.36-1.15.73-2.42,1.13-3.82l.53-1.71c.72-2.32,1.46-4.72,1.86-7.03.12-.51.28-1.15.29-1.94.07-.62.07-1.49-.52-2.15-.66-.75-1.65-.75-1.97-.75-1.69,0-3-.15-4.33-.5-1.62-.33-2.5.81-2.87,1.3l-.52,1.03c-3.07,6.48-5.59,13.64-7.67,21.83-.24.76-.47,1.48-.82,2.23-1.22,2.83-2.56,5.79-3.91,8.75l-.06.13c-5.15,10.98-11.35,21.5-18.43,31.28-2.35,3.25-4.38,5.8-6.41,8.05-1.05,1.22-2.22,2.36-3.44,3.37-.13-.52-.13-1.12-.13-1.77.11-3.58.54-7.23,1.34-11.45,1.49-7.27,3.43-14.36,4.96-19.72,1.14-4.06,2.1-7.29,3.11-10.47,1.07-3.5,2.2-6.85,3.4-10.39l.94-2.79c.95-2.6,1.87-5.19,2.78-7.79.89-2.52,1.78-5.05,2.71-7.58,1-2.85,2.14-5.76,3.24-8.58,1.23-3.15,2.5-6.41,3.62-9.68.19-.56.38-1.12.58-1.68.58-1.67,1.19-3.41,1.57-5.1.24-.91.42-1.88-.14-2.69-.51-.74-1.36-.92-2.05-.99-1.43-.14-2.58-.4-3.41-.8l-.17-.07c-2.18-.68-3.46.43-4.33,1.48-.86,1.03-1.57,2.15-2.19,3.47-.49,1.1-1.02,2.17-1.54,3.24-.54,1.09-1.07,2.19-1.56,3.28-4.78,9.95-9.12,20.55-12.89,31.51-1.64,4.64-3.03,9.32-4.37,13.82-1.46,4.6-2.68,9.05-3.64,13.21-1.23,4.93-2.25,9.96-3.02,14.98-.67,5.07-.88,9.66-.63,14.11.29,2.75.73,5.01,1.9,7.07,1.31,2.41,3.74,3.32,6.7,2.5.74-.22,1.49-.33,2.22-.33,2.47,0,4.8-1.06,7.03-3.25.33-.4.68-.78,1.03-1.15.57-.61,1.15-1.24,1.58-1.86,2.83-3.33,5.57-7.26,8.59-12.36,4.72-7.46,8.68-15.03,12.31-22.27-.65,5.6-.81,10.5-.51,14.94.55,7.88,2.23,14.49,5.13,20.22,2.01,3.92,4.43,7.07,7.23,9.38,2.62,2.03,5.5,3.15,8.87,3.44.29.01.57.02.85.02,2.62,0,5.17-.61,7.75-1.85l.71-.33c.64-.3,1.31-.62,1.96-.82,2.24-.87,4.58-2.26,6.98-4.16,3.39-2.83,6.07-5.93,8.03-8.32,4.86-5.95,9.14-12.7,13.5-21.26,3.42-6.86,6.72-14.44,10.39-23.88,1.67-4.42,3.32-9.17,4.88-14.12,1.12-3.55,2.14-7.15,3.02-10.73h.04c.33,0,.63.03.93.06.38.04.76.07,1.04.06,2.43.26,4.96-.26,7.41-.76l.86-.18c1.84-.39,3.58-1.23,5.68-2.76.83-.66,1.49-1.38,2.13-2.08.2-.22.41-.45.62-.67.75-.79.89-1.92.37-2.86ZM106.27,198.18c.45,0,.86.1,1.28.29,2.48,1.09,4.46,2.96,6.22,5.88,2.08,3.5,3.33,7.79,4.05,13.88.47,4.61.39,9.41-.25,14.66v.05c-.24,2.17-.47,4.41-.81,6.49-6.49-2.65-12.11-6.15-16.73-10.42-3.11-2.79-5.1-6.46-5.92-10.91-.62-3.39-.28-6.62,1.05-9.89,2-5.13,5.22-8.35,9.85-9.82.45-.14.86-.21,1.24-.21Z"/>
          <path class="cls-2" d="M258.06,239.1c-.23-1.85-.61-3.95-2.18-5.6-.35-.37-.68-.74-1-1.11-.34-.39-.68-.78-1.01-1.12-1.11-1.36-3.24-2.74-7.17-1.56-.9.32-1.71.78-2.21,1.09-1.75,1.04-3.6,2.5-5.49,4.33-3.35,3.29-6.35,7.18-9.18,11.86-6.61,10.38-11.88,21.92-15.67,34.3,0,.02-.01.05-.02.07-.48-.45-.98-.84-1.5-1.07l-.45-.29c-.77-.5-1.44-.93-2.14-1.57-1.71-1.35-3.58-2.1-5.51-2.22-6.77-.93-12.9,1.7-18.19,7.81-3.93,4.54-6.48,9.56-7.57,14.91-.82,3.88-.55,7.28.79,10.12.81,1.7,2.25,4.05,5.41,4.71.89.12,1.79.36,2.71.72,1.18.42,2.45.37,3.79-.11.97-.26,1.92-.53,2.88-1.11,2.66-1.53,5.36-3.21,8.04-5.01,2.52-1.81,5.15-3.84,8.07-6.25-.02.36-.05.72-.09,1.08v.17c-.26,5.56-.49,10.81.12,16.18.25,2.21.5,4.49,1.51,6.47.55,1.35,1.5,2.18,2.88,2.47l2.62.38c.15.03.3.04.46.04,1.74,0,4-1.65,4.55-3.41.21-.55.2-1.03-.02-1.43-.34-.61-1.03-.76-1.13-.77-.48-.17-1.01-.18-1.53-.18-.55-.12-1.3-.07-2.02.6-.34-1.16-.44-2.33-.55-3.56-.31-4.57-.12-9.73.6-16.21.45-3.09,1.14-6.44,2.04-9.97.05-.2.08-.31.1-.38.11-.02.29-.04.51-.07,1.62-.31,2.97-.76,4.13-1.37,3.45-1.89,6.31-3.89,8.73-6.09,4.06-3.56,7.82-7.95,11.49-13.39,2.83-4.06,5.21-8.37,7.17-12.04,2.69-4.96,4.49-9.53,5.52-13.99.56-2.81.72-5.23.49-7.41ZM252.29,249.03c-1.6,6.18-4.68,12.57-9.41,19.56-3.31,4.93-7.36,9.54-12.04,13.69-2.41,2.18-5.11,4.06-8.02,5.59-.47.25-.95.44-1.43.62l.92-3.23c3.42-11.07,7.46-20.79,12.36-29.71,2.46-4.46,4.84-8.21,7.3-11.47,1.42-1.92,3.36-4.34,5.88-6.07,1.22-1,2.24-1.53,3.16-1.7h1.21c.09,0,.13,0,.15,0,.01.02.04.1.08.28.35.99.57,1.93.67,2.94.22,2.87-.05,5.99-.82,9.49ZM210.93,296.04c-.05.06-.13.13-.25.23l-.31.28c-.75.68-1.6,1.45-2.42,2.1-5.39,4.26-10.14,7.42-14.95,9.96-1.25.66-2.57,1.16-4.22,1.6-.36.13-.59-.01-.69-.11-.87-1.02-1.35-2.3-1.47-3.91-.11-2.03.11-3.96.68-6.02,2.25-6.97,6.43-11.97,12.46-14.85,3.13-1.59,6.12-2.03,8.89-1.33.23.06.51.35.7.54,1.32,1.82,1.88,4.06,1.76,7.09,0,.23-.11.61-.2.94-.05.17-.1.34-.15.59l-.06.4c-.12.76-.26,1.61.24,2.5Z"/>
          <path class="cls-2" d="M624.47,239.08c-.27-1.87-.7-4-2.47-5.66-.4-.37-.76-.74-1.12-1.11-.38-.39-.77-.78-1.13-1.12-1.79-1.95-4.44-2.48-7.93-1.54-1,.31-1.91.77-2.48,1.08-1.96,1.04-4.04,2.49-6.16,4.33-3.76,3.29-7.15,7.17-10.34,11.86-7.44,10.39-13.38,21.94-17.65,34.32-.02.05-.04.1-.05.15-.57-.49-1.17-.93-1.8-1.17l-.51-.29c-.87-.5-1.62-.93-2.41-1.57-1.9-1.34-3.99-2.08-6.15-2.2-7.58-.91-14.43,1.7-20.37,7.79-4.44,4.55-7.31,9.59-8.54,14.95-.93,3.92-.63,7.35.9,10.22.91,1.7,2.52,4.05,6.04,4.7,1.01.12,2.04.36,3.09.73,1.29.4,2.68.36,4.18-.11,1.08-.25,2.15-.53,3.21-1.1,3-1.53,6.03-3.21,9.05-5,2.87-1.83,5.87-3.9,9.22-6.36-.02.36-.05.72-.1,1.09v.21c-.29,5.56-.55,10.81.14,16.18.28,2.22.57,4.51,1.71,6.51.63,1.37,1.66,2.18,3.2,2.46l2.96.38c.16.03.32.04.49.04,1.91,0,4.42-1.66,5.04-3.41.24-.56.24-1.06.01-1.48-.32-.6-.96-.78-1.29-.84-.52-.16-1.11-.17-1.69-.17-.61-.12-1.48-.06-2.3.69-.4-1.18-.52-2.37-.64-3.6-.35-4.56-.13-9.72.67-16.17.51-3.08,1.27-6.43,2.29-9.95.05-.18.08-.29.11-.36.13-.02.35-.05.61-.08,1.81-.31,3.31-.75,4.61-1.36,3.88-1.89,7.09-3.88,9.82-6.08,4.57-3.57,8.81-7.95,12.94-13.39,3.18-4.07,5.87-8.37,8.08-12.05,3.03-4.97,5.07-9.54,6.23-14.03.64-2.83.82-5.26.56-7.47ZM618.1,248.99c-1.8,6.17-5.26,12.55-10.58,19.52-3.72,4.93-8.28,9.53-13.55,13.69-2.72,2.18-5.76,4.06-9.04,5.6-.57.27-1.15.47-1.72.65l1.01-3.14c3.84-11.07,8.39-20.79,13.9-29.69,2.77-4.46,5.45-8.21,8.21-11.46,1.59-1.92,3.78-4.34,6.62-6.07,1.38-1.01,2.55-1.54,3.64-1.72h1.36c.2,0,.26.03.28.12l.05.16c.39.98.63,1.91.75,2.9.24,2.85-.06,5.95-.92,9.44ZM571.51,296.01c-.05.05-.13.1-.22.17l-.36.29c-.84.67-1.79,1.44-2.72,2.09-6.07,4.26-11.41,7.42-16.83,9.96-1.42.66-2.91,1.17-4.77,1.6-.52.16-.84-.06-.91-.13-.97-1.01-1.5-2.26-1.64-3.85-.12-2.02.12-3.92.76-5.96,2.52-6.96,7.24-11.95,14.02-14.83,3.55-1.6,6.96-2.05,10.12-1.34.29.07.58.34.83.56,1.47,1.8,2.09,4.02,1.96,7.02,0,.21-.12.58-.22.89-.06.18-.11.35-.18.62l-.07.4c-.13.72-.29,1.61.23,2.51Z"/>
          <path class="cls-2" d="M365.97,288.41c-.45-.32-1.34-.66-2.22.57-.3.4-.8.7-1.27.99l-.3.19c-4.01,2.56-8.04,5-11.93,7.36-.41.24-.81.46-1.22.67-.16.08-.32.17-.47.25.09-1.34.17-2.72.17-4.08v-1.52c.03-2.03.05-4.13-.24-6.2-.15-1.45-.82-2.58-1.98-3.34-.94-.62-1.62-1.38-2.21-2.1-.36-.45-.81-1-1.53-1.05-.68-.03-1.27.42-1.84.95-.19-.16-.39-.33-.59-.49-.52-.43-1.05-.88-1.48-1.32-.93-1.12-2.14-1.88-3.67-2.32-3.43-1.16-7.25-.58-11.35,1.71-5.3,2.85-9.41,7.14-12.58,13.12-1.91,3.88-2.61,7.34-2.14,10.58.43,3.06,1.7,5.08,3.9,6.17,1.03.48,1.94,1.08,2.88,1.7,1.2.84,2.73,1.11,4.36.8,1.32-.14,2.65-.56,3.95-1.24,1.93-1.02,3.63-2.23,4.99-3.55,3.82-3.24,7.21-6.62,10.09-10.04-.24,2.45-.59,5-1.05,7.8-.07.24-.08.25-.38.42-.19.13-.39.22-.6.33-.16.07-.32.15-.46.23-2.06.96-4.15,1.95-6.24,2.93-2.07.98-4.15,1.96-6.2,2.92-7.65,3.65-13.36,7.09-18.5,11.16-5.11,3.87-9.44,8.08-12.85,12.51-2.86,3.76-4.7,7.04-5.82,10.32-2.09,6.61.33,12.33,6,14.23,1.36.48,3.02.79,5.05.94,1.13.11,2.22.16,3.28.16,3.29,0,6.27-.53,9.19-1.61,6.28-2.33,12.04-6.31,17.6-12.17,5.16-5.31,9.4-11.55,12.96-19.06,2.4-5.07,3.84-10.36,5.22-15.47l.51-1.88c.5-2.1.75-4.19.98-6.19.09-.66.33-1.04.88-1.36,4.36-2.51,8.25-4.89,11.87-7.28.43-.28.87-.55,1.3-.82,1.12-.7,2.28-1.42,3.32-2.25.5-.35.83-.74,1.11-1.3.57-.85.41-1.63-.5-2.35ZM299.23,356.66c-2.51-.13-4.5-.89-5.96-2.32-1.76-1.54-2.35-3.91-1.76-7.03.6-3.14,2.21-6.05,3.84-8.69,2.3-3.4,5.13-6.54,8.43-9.37,5.16-4.66,10.98-8.66,18.91-12.98,3.11-1.77,6.32-3.38,9.44-4.93,1.35-.68,2.71-1.35,3.93-1.99.46-.16.86-.36,1.26-.57-.05.27-.11.53-.16.8-.12.6-.24,1.2-.36,1.75-2.26,9.79-5.93,18.56-11.23,26.8-4.1,6.55-9.56,11.84-16.22,15.72-3.63,2.11-6.92,3.03-10.12,2.8ZM338.14,289.59c-.04.13-.15.35-.24.57-.46,1.45-1.3,2.82-2.04,3.94-2.85,3.92-5.97,6.96-9.52,9.3-2.25,1.4-4.28,2.23-6.22,2.55-.51.11-1.06.11-1.61.11-.55.06-.69-.07-.83-.5-.38-1.3-.37-2.73.01-4.48.96-3.93,2.89-7.15,5.86-9.82,2.13-1.84,5.01-4.11,8.31-5.31,1.89-.75,3.67-1.07,5.18-.97.54.09.55.18.62.52.24.76.27,1.31.1,1.94-.12.53-.35,1.5.38,2.15Z"/>
          <g>
            <path class="cls-2" d="M255.54,272.4c.82,0,1.61.3,2.45.61l.62.23c.36.13.71.18,1.04.18,1.22,0,2.22-.76,2.95-1.43,1.15-1.21,1.8-2.55,2.24-3.6.62-1.58,1.22-3.4.5-5.06-.08-.25-.08-.53-.08-.74,0-1.24-.73-2.05-1.76-2.05h-.01c-.66-.08-1.33-.26-2.05-.46-.37-.1-.74-.2-1.11-.29-1.33-.31-2.69.09-4.05,1.2l-.03.02c-1.64,1.46-2.75,3.37-3.28,5.62-.39,1.22-.34,2.56.14,3.91.45,1.18,1.33,1.86,2.42,1.86Z"/>
            <path class="cls-2" d="M275.83,289.17c-.23-.42-.69-.67-1.22-.67l-.31.05c-.43.15-1.02.36-1.48,1.1-.04.08-.1.16-.16.24-.12.17-.24.35-.27.43-3.46,5.53-7.67,10.94-13.68,17.56-1.16,1.34-2.55,2.56-4.04,3.52-1.7,1.12-2.17.81-2.94-.25-.14-.14-.21-.3-.32-.53-.65-1.38-.86-2.83-.64-4.44.26-1.93.64-3.63,1.17-5.19,1.2-3.78,2.65-7.6,4.07-11.29l.87-2.28c.31-.84.67-1.69,1.03-2.53.62-1.44,1.25-2.93,1.63-4.35.22-.62.39-1.33.02-1.94-.36-.59-1.02-.74-1.47-.8-1.76-.27-3.23-.65-4.54-1.18-.57-.3-1.48-.43-2.53.69-.2.21-.37.43-.54.64-.13.17-.27.34-.42.51l-.12.16c-.63,1.06-1.13,2.11-1.61,3.13l-.02.05c-2.09,5.18-3.68,10.23-5,15.95l-.17.91c-.25,1.34-.57,3.01-.57,4.75.15,4.31,1.03,7.29,2.87,9.72,1.42,1.66,3.02,2.48,4.79,2.48h.02c.19.02.38.03.57.03.68,0,1.34-.12,1.99-.24.35-.06.69-.13,1.11-.18,1.45-.31,2.69-1.08,3.76-1.83,1.48-1.17,2.87-2.5,4.1-3.93,1.59-1.8,3.15-3.71,4.61-5.5,3.88-4.85,6.61-8.7,8.84-12.49.29-.34.45-.67.58-1.06.22-.42.23-.87.02-1.25Z"/>
          </g>
          <path class="cls-2" d="M322.5,288.96c-.46-.42-1.05-.45-1.83-.03-.35.24-.59.54-.79.78-.07.08-.13.16-.26.3l-8.45,11.09c-1.68,2.22-3.28,4.31-5.1,6.23-1.44,1.41-3.19,3.03-5.13,4.32-.23.14-.38.2-.46.23-.04-.05-.08-.12-.14-.23-.08-.25-.08-.54-.09-.73.04-.28.07-.58.1-.88.05-.49.1-1,.26-1.54.16-1.01.44-2,.71-2.95.12-.43.24-.86.36-1.29.48-1.85,1.08-3.73,1.65-5.56.29-.93.59-1.86.85-2.74,1.68-4.57,2.76-8.42,3.42-12.11l.03-.16c.24-1.55.48-3.01.09-4.48-.33-1.91-1.58-3.14-3.32-3.29-.92-.12-1.68-.24-2.47-.59-1.07-.38-2.07-.27-2.98.29-1.08.5-2.09,1.15-3.22,2.04-3.59,3.08-6.52,6.41-8.93,9.27-2.71,3.35-5.08,7.03-7.37,10.58-.7,1.08-1.39,2.16-2.1,3.24l-4.09,6.45c.49-3.87,1.16-7.69,2.01-11.4.6-3.39,1.57-6.86,2.5-10.17l.36-1.03c.52-1.5,1.06-3.05,1.36-4.52.21-.89.34-1.63-.06-2.25-.38-.59-1.07-.77-1.73-.89-1.17-.25-2.37-.63-3.43-.96-1.45-.65-2.24-.08-3.02,1.02-.85,1.04-1.37,2.32-1.7,3.26-1.3,2.96-2.1,5.85-2.95,8.91l-.35,1.25c-1.06,3.63-1.53,7.07-1.84,9.96-.41,4.32-.16,8.15.77,11.45.39,1.09.77,1.9,1.34,2.79.55.72,1.33,1.1,2.15,1.1.27,0,.54-.04.82-.12.53-.11,1.13-.21,1.64-.11,1.45.18,2.53-.49,3.29-1.94,1.12-1.76,2.3-3.74,3.54-5.92,2.36-4.57,4.79-8.52,7.4-12.07,2.46-3.22,5.01-6.54,8.1-9.42,2.1-1.96,4.09-3.39,6.12-4.41-.21,1.16-.43,2.25-.85,3.46l-3.61,11.04c-1.28,3.63-1.98,7.27-2.1,10.86,0,1.69,0,3.45.53,5.11.75,2.37,2.75,3.61,5.48,3.27.39-.1.83-.22,1.06-.22,1.02,0,1.91-.29,2.72-.87.97-.51,1.87-1.16,2.87-2.07,1.95-1.92,3.67-3.87,5.26-5.93,2.31-2.87,4.48-5.83,6.58-8.7.99-1.36,1.98-2.7,2.96-4.01.72-.88,1.46-1.79,2.09-2.84.16-.2.46-.65.38-1.18-.05-.28-.2-.53-.42-.7Z"/>
          <g>
            <path class="cls-2" d="M124.06,272.49c.82-.02,1.62.25,2.47.54l.63.21c.36.12.71.16,1.04.15,1.22-.03,2.2-.82,2.91-1.51,1.11-1.23,1.72-2.59,2.14-3.66.58-1.59,1.13-3.43.37-5.07-.09-.25-.09-.53-.1-.74-.03-1.25-.77-2.09-1.83-2-.66-.06-1.34-.23-2.06-.4-.37-.09-.75-.18-1.12-.26-1.34-.28-2.69.16-4.01,1.31l-.03.03c-1.6,1.5-2.66,3.45-3.13,5.71-.35,1.23-.27,2.57.24,3.9.48,1.17,1.38,1.82,2.47,1.79Z"/>
            <path class="cls-2" d="M144.19,289.17c-.23-.42-.69-.67-1.22-.67l-.31.05c-.43.15-1.02.36-1.48,1.1-.04.08-.1.16-.16.24-.12.17-.24.35-.27.43-3.46,5.53-7.67,10.94-13.68,17.56-1.16,1.34-2.55,2.56-4.04,3.52-1.7,1.12-2.17.81-2.94-.25-.14-.14-.21-.3-.32-.53-.65-1.37-.86-2.83-.64-4.44.27-1.97.64-3.61,1.17-5.19,1.2-3.78,2.65-7.6,4.07-11.29l.87-2.28c.31-.84.67-1.69,1.03-2.53.62-1.44,1.25-2.93,1.63-4.35.22-.62.39-1.33.02-1.94-.36-.59-1.02-.74-1.47-.8-1.76-.27-3.23-.65-4.54-1.18-.57-.3-1.48-.43-2.53.69-.2.21-.37.43-.54.64-.13.17-.27.34-.42.51l-.12.16c-.63,1.06-1.13,2.11-1.61,3.13l-.02.05c-2.09,5.18-3.68,10.23-5,15.95l-.17.91c-.25,1.34-.57,3.01-.57,4.75.15,4.31,1.03,7.29,2.87,9.72,1.42,1.66,3.02,2.48,4.79,2.48h.02c.19.02.38.03.57.03.68,0,1.34-.12,1.99-.24.35-.06.69-.13,1.11-.18,1.45-.31,2.69-1.08,3.76-1.83,1.49-1.17,2.87-2.5,4.1-3.93,1.6-1.82,3.23-3.8,4.61-5.5,3.88-4.84,6.61-8.7,8.84-12.49.29-.34.45-.67.58-1.06.22-.42.23-.87.02-1.25Z"/>
          </g>
          <path class="cls-2" d="M190.86,288.96c-.47-.42-1.05-.45-1.83-.03-.35.24-.59.54-.79.78-.07.08-.13.16-.26.3l-8.45,11.09c-1.68,2.22-3.28,4.31-5.1,6.23-1.44,1.41-3.19,3.03-5.13,4.32-.23.14-.38.2-.46.23-.04-.05-.08-.12-.14-.23-.08-.25-.08-.54-.09-.73.04-.28.07-.58.1-.88.05-.49.1-1,.26-1.54.16-1.01.44-2,.71-2.95.12-.43.24-.86.36-1.29.48-1.85,1.08-3.73,1.65-5.56.29-.93.59-1.86.85-2.74,1.68-4.57,2.76-8.42,3.42-12.11l.03-.16c.24-1.55.48-3.01.09-4.48-.33-1.91-1.58-3.14-3.32-3.29-.92-.12-1.68-.24-2.47-.59-1.07-.38-2.07-.27-2.98.29-1.08.5-2.09,1.15-3.22,2.04-3.59,3.08-6.52,6.41-8.93,9.27-2.71,3.35-5.08,7.02-7.37,10.57-.7,1.09-1.4,2.17-2.11,3.25l-4.08,6.45c.49-3.87,1.16-7.69,2.01-11.4.6-3.39,1.57-6.86,2.5-10.17l.36-1.03c.52-1.5,1.06-3.05,1.36-4.52.21-.89.34-1.63-.06-2.25-.38-.59-1.07-.77-1.73-.89-1.17-.25-2.37-.63-3.43-.96-1.44-.65-2.24-.08-3.02,1.02-.85,1.04-1.37,2.32-1.7,3.26-1.3,2.96-2.1,5.86-2.95,8.93l-.34,1.23c-1.06,3.63-1.53,7.07-1.84,9.96-.41,4.32-.16,8.15.77,11.45.39,1.09.78,1.91,1.34,2.79.55.72,1.33,1.1,2.15,1.1.27,0,.54-.04.82-.12.53-.11,1.14-.21,1.64-.11,1.45.18,2.53-.49,3.29-1.94,1.12-1.76,2.3-3.74,3.54-5.92,2.36-4.57,4.79-8.52,7.4-12.07,2.46-3.22,5.01-6.54,8.1-9.42,2.1-1.96,4.09-3.39,6.12-4.41-.21,1.16-.43,2.25-.85,3.46l-3.61,11.04c-1.28,3.63-1.98,7.27-2.1,10.86,0,1.69,0,3.45.53,5.11.75,2.37,2.74,3.61,5.48,3.27.39-.1.83-.22,1.06-.22,1.02,0,1.91-.29,2.72-.87.97-.51,1.87-1.16,2.87-2.07,1.95-1.92,3.67-3.87,5.26-5.93,2.31-2.87,4.48-5.83,6.58-8.7.99-1.36,1.98-2.7,2.96-4.01.72-.88,1.46-1.79,2.09-2.84.16-.2.46-.65.38-1.18-.05-.28-.2-.53-.42-.7Z"/>
          <path class="cls-2" d="M500.71,289.37c-.06-.57-.43-1.18-1.78-1.18h-.21l-1.12.53c-.96.6-2.04,1.04-3.09,1.47l-.54.22c-4.68,1.7-9.39,3.23-14.41,4.67-.27.05-.54.1-.8.17.41-1.38.65-2.64.75-3.85.47-6.8-1.84-11.27-7.09-13.67-4.02-1.81-8.61-1.14-12.27,1.77-.11.09-.2.16-.28.22-.05-.03-.11-.07-.16-.09-.74-.58-1.92-1.35-3.52-1.35h0c-2.24-.13-4.57.56-6.89,2.02-2.19,1.15-4.19,2.72-5.94,4.62-4.21,4.21-7.04,8.81-8.39,13.61-1.04,3.2-1.13,6.31-.25,9.05,1.75,4.36,4.95,7.45,9.49,9.18,1.3.55,2.72.75,4.1.94.34.05.68.09.96.13,1.08.24,2.18.36,3.29.36,2.59,0,5.25-.66,7.96-1.98,7.58-3.94,13.16-9.52,16.54-16.49.36-.56.47-.72.9-.85,6.04-1.45,12.04-3.56,17.71-5.66.3-.14.59-.27.89-.4,1.07-.48,2.18-.97,3.24-1.74.32-.2,1.16-.71.9-1.7ZM453.86,313.91c-.35.09-.7.18-.95.23-.94.11-1.89,0-2.76-.31-5-2.22-6.77-7.49-4.39-13.11,1.94-4.7,5.22-8.81,10.36-12.9.11,2.41,1.07,4.54,2.91,6.39,2.96,2.64,6.76,4.34,11.64,5.19.48.08.97.08,1.44.08.19,0,.39,0,.6,0-4.56,7.19-10.39,11.83-17.69,14.16-.36.07-.76.17-1.16.27ZM474.49,295.75c-.05.11-.1.23-.15.31-.07,0-.2.01-.41.01h-1.61c-4.88-.11-8.19-2.18-9.87-6.17-.34-.74-.44-1.44-.33-2.26.35-2.54,3.08-5.15,6.25-5.95.62-.19,1.23-.29,1.91-.29.34,0,.69.02,1.07.07.65.09,1.27.43,1.71.95,1.67,1.92,2.48,4.13,2.48,6.74,0,2.43-.17,4.47-1.06,6.59Z"/>
          <path class="cls-2" d="M550.53,289.37c-.06-.57-.43-1.18-1.78-1.18h-.21l-1.12.53c-.96.6-2.04,1.04-3.09,1.47l-.54.22c-4.68,1.7-9.39,3.23-14.41,4.67-.27.05-.53.1-.79.16.41-1.38.65-2.63.75-3.85.47-6.8-1.84-11.27-7.09-13.67-4.02-1.81-8.61-1.14-12.27,1.77-.11.09-.2.16-.28.22-.05-.03-.11-.07-.16-.09-.74-.58-1.92-1.35-3.52-1.35h0c-2.24-.13-4.57.56-6.89,2.02-2.19,1.15-4.19,2.72-5.94,4.62-4.21,4.21-7.04,8.81-8.39,13.61-1.04,3.2-1.13,6.3-.25,9.05,1.75,4.36,4.95,7.45,9.49,9.18,1.3.55,2.72.75,4.1.94.34.05.68.09.96.13,1.08.24,2.18.36,3.29.36,2.59,0,5.25-.66,7.96-1.98,7.58-3.94,13.16-9.52,16.54-16.49.36-.56.47-.72.9-.85,6.03-1.44,12.04-3.56,17.71-5.66.3-.14.6-.27.9-.41,1.07-.48,2.17-.97,3.23-1.74.32-.2,1.16-.71.9-1.7ZM503.68,313.91c-.35.09-.7.18-.95.23-.94.11-1.89,0-2.76-.31-5-2.22-6.77-7.49-4.39-13.11,1.94-4.7,5.22-8.81,10.36-12.9.11,2.41,1.07,4.54,2.91,6.39,2.96,2.64,6.76,4.34,11.64,5.19.48.08.97.08,1.44.08.19,0,.39,0,.6,0-4.56,7.19-10.39,11.83-17.69,14.16-.36.07-.76.17-1.16.27ZM524.32,295.75c-.05.11-.1.23-.15.31-.07,0-.2.01-.41.01h-1.61c-4.88-.11-8.19-2.18-9.87-6.17-.34-.74-.44-1.44-.33-2.26.36-2.54,3.08-5.15,6.25-5.95.62-.19,1.23-.29,1.91-.29.34,0,.69.02,1.07.07.65.09,1.27.43,1.71.95,1.67,1.92,2.48,4.13,2.48,6.74,0,2.43-.17,4.47-1.06,6.59Z"/>
          <path class="cls-2" d="M660.72,284.05c-.13-.4-.5-.91-1.44-1.06-1.22-.26-1.88.43-2.18.79-1.4,1.15-3.05,2.23-5.19,3.4-8.07,4.73-16.17,8.76-24.44,12.8l-1.19.57c-1.71.82-3.33,1.59-5.13,2.23-.04.02-.07.03-.1.05-1.11-2.29-2.34-4.93-3.1-7.58-.79-2.34-.98-4.54-.57-6.76.3-1.99,1.24-3.61,2.87-4.95,2.8-2.31,6.29-3.9,10.72-4.89.33-.09.69-.09,1.25-.1.54-.08.64.02.85.31.84,1.29.91,2.81.18,4.73-.51,1.68.09,2.8,1.68,3.29,1.37.56,1.99.4,3.03-.79,2.66-3.11,3.14-6.48,1.27-9.05-.8-1.05-1.88-1.82-3.51-2.49l-2.76-1.14c-1.3-.59-3.06-1.26-5.22-1.1-4.06.12-7.97,1.25-12.34,3.56-5.04,2.73-8.12,6.55-9.16,11.37-.54,2.52-.46,4.81-.32,6.63.48,2.65.94,5.05,1.72,7.49.56,1.84,1.27,3.69,2.29,5.94-.04.01-.07.03-.12.04-.84.31-1.64.6-2.44.88-.82.29-1.64.58-2.52.91-6.67,2.67-11.84,5.46-16.29,8.78-4.11,3.14-8.34,6.67-11.48,11.16-3.3,4.69-4.98,8.95-5.12,13.01-.2,4.39,1.32,8.18,4.4,10.94,3.19,2.87,7.91,4.43,13.04,4.43,1.3,0,2.62-.1,3.95-.3.72,0,1.39-.14,1.97-.26,7.95-.9,14.99-4.11,20.93-9.54,5.48-4.9,8.86-10.7,10.05-17.27.99-6.38.56-12.36-1.27-17.75-.63-2.07-1.55-3.99-2.43-5.8.04-.02.07-.04.12-.06,1.86-.71,3.85-1.57,5.97-2.59,1.58-.83,3.16-1.65,4.75-2.47,4.67-2.42,9.5-4.92,14.25-7.6,3.36-1.89,6.83-3.84,10.11-6.16.8-.53,1.62-1.07,2.31-1.78.6-.61.8-1.22.6-1.81ZM577.27,341.38v-.04c0-.91.23-1.86.5-2.95l.08-.33c1.07-3.85,3.6-7.65,7.76-11.63,4.75-4.74,10.76-8.73,17.88-11.86l7.85-3.43c.15-.06.27-.11.37-.14,0,0,0,.02.01.03,2.94,5.94,4.05,12.55,3.3,19.62-.63,4.65-2.58,9.06-5.8,13.1-3.33,4.12-8.2,7.21-14.46,9.2-.99.31-2.08.46-3.18.46-4.42-.27-7.73-1.24-10.11-2.99-2.93-2.09-4.34-5.13-4.19-9.04Z"/>
          <path class="cls-2" d="M451.18,291.39c-.34-.74-1.25-1.04-2.36-.68-.17.08-.31.16-.44.24-.07.05-.14.09-.3.17-1.35.76-2.7,1.39-3.96,1.98-3.98,1.61-8.15,2.88-12.39,3.75,0-.01,0-.03,0-.04.63-2.26,1.06-4.54,1.35-7.13.56-4.18-.1-7.95-2-11.5-1.58-3.13-4.87-4.04-7.22-4.46h-.08s-1.73,0-1.73,0c-3.38.53-6.12,2.34-8.12,5.37-1.62,2.41-2.36,5.09-2.2,8,.27,3.16,1.51,5.88,3.89,8.55,2.36,2.8,5.11,4.43,8.42,4.99-1.23,2.57-2.96,5.06-5.29,7.62-1.69,1.98-3.62,3.43-5.79,4.33-1.33.62-1.91.5-2.47.06l-1.14-.71c-1.37-1.3-2.52-2.97-3.49-5.04-1.68-4.47-1.85-9.41-.51-14.67.27-1.03.56-2.09.69-3.09.15-.72.26-1.42-.13-2.02-.39-.59-1.05-.77-1.57-.87-.34-.13-.71-.26-1.09-.38-.37-.13-.74-.25-1.1-.39-1.56-.55-2.27-.31-3.31,1.16-.73,1.15-1.33,2.47-1.87,4.16-.75,2.24-1.55,3.98-2.59,5.6l-.87,1.26c-1.46,2.12-2.97,4.31-4.67,6.33-2.18,2.85-4.46,5.11-7.02,6.94-.92.72-1.75,1.23-2.53,1.54-.15.07-.28.13-.39.18-.01-.03-.02-.06-.04-.09-.23-.75-.23-1.69-.23-2.77,0-1.96.88-3.97,1.8-6.06,2.99-6.15,5.95-11.57,9.02-16.52.78-1.1,1.47-2.23,2.22-3.63.39-.66.72-1.37.46-2.1-.25-.7-.91-1.01-1.48-1.21-1.55-.6-3.16-1.23-4.56-2.13-1.59-.75-2.41-.36-3.65.8-1.32,1.24-2.49,2.67-3.54,4.37-2.96,4.44-5.43,9.04-7.26,12.56-1.73,3.37-2.81,6.77-3.23,10.18-.14,2.41-.16,4.95,1.06,7.25.73,1.37,2.01,3.23,4.7,3.56,1.27.12,2.42.36,3.54.74,1.76.42,3.6,0,5.71-1.32.86-.67,1.72-1.48,2.42-2.26,1.91-2.01,3.78-4.19,6.04-7.06v-.02c.82-1.08,1.64-2.12,2.45-3.17.31-.4.61-.79.92-1.19.09.96.2,1.92.36,2.86.7,2.82,1.88,6.43,4.92,9.27,2.24,1.94,4.98,2.91,7.97,2.78.91,0,1.69,0,2.39.11.59.12,1.2.18,1.81.18,2.03,0,4.2-.64,6.59-1.93,2.59-1.45,4.78-3.55,6.71-6.41,1.57-2.33,2.98-5,4.17-7.95.15-.39.31-.8.36-.87.09-.05.46-.12.84-.19,3.15-.68,6.46-1.62,10.45-2.96,2.52-.9,5.46-2.07,8.26-3.98.66-.24,1.07-.58,1.22-1.04.12-.34.07-.72-.12-1.04ZM417.59,285.44c.24-2.81,1.9-5.08,4.98-6.76.63-.39,1.28-.5,2.2-.62l.16-.04c.11-.04.22-.06.33-.06.22,0,.42.09.64.34,1.03,1.39,1.71,3.07,2.13,5.28.26,2.58-.02,5.65-.81,8.73-.22,1.36-.76,2.94-1.72,5.05-.02.06-.04.11-.05.15-.06,0-.15-.02-.25-.03-.33,0-.76-.2-1.17-.39-4.81-2.63-6.91-6.44-6.43-11.66Z"/>
        </g>
      </g>
      <g>
        <g>
          <path class="cls-2" d="M343.51,390.46c-1.64,0-2.55-.62-2.55-1.77,0-.57.13-1.32.41-2.3l2.22-8.07c.11-.36.15-.59.15-.72,0-.38-.19-.51-.86-.55-.5-.04-.65-.11-.65-.28,0-.26.28-.28,1.17-.28h.32c.26,0,.56,0,.86-.02.3-.02.63-.04.82-.04.26,0,.32.04.32.15,0,.06-.02.19-.07.32l-2.05,7.41c.93-1.28,2.07-2,3.13-2s1.88,1.09,1.88,2.68c0,2.98-2.31,5.47-5.11,5.47M345.99,383.15c-.95,0-2.01.96-2.52,2.15-.39.92-.88,2.85-.88,3.64,0,.7.39,1.09,1.06,1.09,2.22,0,3.28-4.68,3.28-5.64,0-.89-.41-1.23-.93-1.23"/>
          <path class="cls-2" d="M356,388.39l-.24.26c-1.19,1.21-2.2,1.77-3.21,1.77-.88,0-1.4-.49-1.4-1.32,0-.38.13-1.06.41-2l.26-.87c.28-1.02.43-1.79.43-2.26s-.22-.81-.56-.81c-.43,0-.82.53-1.08,1.41-.11.36-.17.58-.37.58-.11,0-.17-.04-.17-.15,0-.6.75-2.75,2.2-2.75.99,0,1.58.77,1.58,2.09,0,.36-.07.77-.24,1.43l-.52,2.02c-.11.43-.19.83-.19,1.04,0,.43.19.73.6.73.84,0,1.77-.73,2.8-2.24l1.19-4.43c.09-.32.17-.4.47-.4h.82c.26,0,.39.08.39.28,0,.06-.02.17-.04.28l-2.31,8.6c-.26.96-.71,1.77-1.21,2.24-.93.83-2.35,1.38-3.58,1.38s-2.18-.53-2.18-1.21c0-.45.54-.91.97-.91.35,0,.52.15.84.74.37.7.58.87,1.04.87,1.01,0,1.9-1.09,2.39-2.9l.91-3.45Z"/>
        </g>
        <g>
          <path class="cls-2" d="M214.07,373.92l-.16.18c-.42.48-.79.8-1.1.95-.28.14-.57.13-.89-.01-.36-.15-.8-.46-1.33-.92l-1.81-1.57,3.76-4.32,2.59,2.25c.61.53,1.06.98,1.35,1.35.27.34.43.67.47.96.04.28,0,.59-.15.92-.16.37-.39.82-.69,1.33l-.1.17,1.06.92,2.99-3.7-10.43-9.08-.18-.16-.88,1.01.18.16c.44.38.75.72.93,1.01.16.26.2.5.14.75-.08.28-.29.63-.65,1.04l-6.93,7.97c-.39.44-.72.74-.99.87-.24.12-.46.12-.72,0-.3-.14-.7-.42-1.18-.84l-.18-.16-.88,1.01,6.22,5.42.88-1.01-.18-.16c-.48-.42-.82-.78-1.03-1.09-.19-.27-.25-.53-.2-.78.06-.28.26-.62.61-1.02l3.16-3.63,1.81,1.58c.53.46.91.85,1.13,1.17.2.28.25.55.17.82-.09.31-.35.72-.78,1.21l-.16.18,1.09.94,4.16-4.78-1.09-.94Z"/>
          <path class="cls-2" d="M220.2,391.95c-.16-.24-.18-.48-.07-.75.13-.32.41-.76.83-1.33l5.79-7.79c.38-.51.71-.89.98-1.14.23-.21.48-.27.76-.2.33.08.8.34,1.39.78l.19.14.8-1.07-6.5-4.83-.8,1.07.19.14c.75.55,1.04.91,1.15,1.11.14.25.15.51.02.79-.15.33-.42.76-.79,1.27l-5.79,7.79c-.42.56-.76.95-1.04,1.17-.23.18-.46.23-.74.15-.32-.1-.78-.36-1.36-.79l-.19-.14-.8,1.07,6.48,4.82.8-1.07-.19-.14c-.55-.41-.93-.76-1.11-1.04Z"/>
          <path class="cls-2" d="M235.62,384l-.71,1.14.21.13c.55.34.94.65,1.15.9.17.22.23.46.17.73-.07.32-.27.74-.59,1.26l-5.46,8.74c-.33.53-.62.88-.87,1.05-.21.15-.45.18-.72.1-.32-.1-.75-.31-1.26-.63l-.2-.13-.71,1.13,12.03,7.51,3.41-4.04-1.17-.73-.13.11c-.58.48-1.08.86-1.5,1.12-.4.25-.8.4-1.17.43-.39.03-.83-.06-1.33-.26-.53-.21-1.18-.56-1.95-1.04l-2.48-1.55,3.3-5.28,2.1,1.31c.67.42,1.14.77,1.4,1.04.23.24.32.49.27.75-.04.22-.17.63-.61,1.33l-.13.2,1.2.75,3.34-5.36-1.2-.75-.13.21c-.34.54-.65.92-.92,1.12-.23.17-.5.22-.83.13-.38-.11-.9-.37-1.55-.77l-2.1-1.31,3.02-4.83,2.82,1.76c.83.52,1.42.98,1.77,1.38.32.37.46.75.43,1.17-.03.45-.21,1.05-.52,1.76l-.09.19,1.2.75,2.36-4.1-11.83-7.39Z"/>
          <path class="cls-2" d="M259.57,410.77c-.54.55-1,.99-1.39,1.32-.38.33-.76.55-1.13.67-.36.12-.77.12-1.24.02-.49-.11-1.08-.33-1.76-.67l-1.15-.57c-.77-.38-1.04-.65-1.13-.81-.15-.25,0-.66.14-.95l4.71-9.51c.27-.56.54-.96.79-1.2.22-.21.47-.3.79-.28.35.03.82.19,1.4.47l.22.11.59-1.2-7.17-3.55-.59,1.2.22.11c.56.28.97.55,1.19.79.19.21.25.44.19.73-.07.33-.24.79-.52,1.36l-4.46,8.99c-.28.56-.53.97-.75,1.21-.19.2-.39.28-.67.25-.32-.04-.77-.2-1.36-.49l-.22-.11-.59,1.2,11.93,5.91.19.09,3.16-4.58-1.26-.63-.12.13Z"/>
          <path class="cls-2" d="M283.39,409.59c-.63-.9-1.46-1.68-2.47-2.34-1-.65-2.12-1.2-3.35-1.65l-6.81-2.5-.47,1.28.23.08c.56.2.98.41,1.27.6.24.17.37.37.39.63.03.28-.06.7-.26,1.25l-3.57,9.7c-.23.61-.44,1.05-.63,1.31-.16.21-.35.31-.61.31-.01,0-.03,0-.04,0-.34-.02-.84-.14-1.48-.38l-.23-.08-.46,1.25,7.02,2.59c1.29.47,2.55.76,3.73.87.27.02.53.03.79.03.9,0,1.77-.14,2.58-.41,1.05-.35,2-.97,2.82-1.85.81-.87,1.49-2.04,2.02-3.48.56-1.51.78-2.87.66-4.05-.12-1.18-.5-2.25-1.13-3.15ZM275.87,406.71l.51.19c2.22.82,3.67,1.98,4.3,3.47.63,1.49.56,3.32-.22,5.44-.63,1.72-1.37,2.96-2.21,3.7-.84.74-1.75,1.1-2.81,1.11-1.06,0-2.28-.23-3.6-.71-.2-.07-.41-.15-.62-.24-.15-.06-.29-.12-.44-.19l4.74-12.87c.14.03.25.07.36.11Z"/>
          <path class="cls-2" d="M304.3,419.74l1.38.33,1.48-6.17-1.21-.29-.1.11c-.18.21-.35.38-.49.53-.06.06-.15.12-.34.07-.16-.04-.36-.16-.61-.35-.29-.24-.69-.49-1.18-.76-.51-.28-1.2-.53-2.11-.75-1.58-.38-3.09-.39-4.48-.05-1.41.35-2.64,1.08-3.66,2.18-1.02,1.1-1.77,2.61-2.22,4.5-.63,2.66-.45,4.92.55,6.72,1,1.81,2.89,3.06,5.6,3.71,1.1.26,2.1.4,2.99.4.22,0,.42,0,.62-.02,1.01-.08,2.04-.27,3.05-.57l.14-.04.86-3.58c.22-.92.45-1.21.57-1.29.11-.08.42-.19,1.22,0l.23.06.32-1.35-6.78-1.62-.32,1.35.23.06c.59.14,1.02.29,1.28.46.22.14.33.32.35.57.02.3-.03.73-.17,1.29l-.56,2.36c-.52.22-1.04.37-1.54.44-.52.08-1.16.03-1.88-.14-1.62-.38-2.68-1.24-3.26-2.62-.58-1.38-.59-3.3-.01-5.7.5-2.11,1.33-3.67,2.45-4.65,1.11-.97,2.43-1.26,4.02-.87,1.24.3,2.18.88,2.79,1.73.61.85.87,2.12.78,3.75v.2Z"/>
          <path class="cls-2" d="M328.52,432.59c-.29-.37-.57-.98-.83-1.79l-4.2-14.24-1.84-.22-6.92,12.19c-.45.81-.82,1.42-1.11,1.8-.27.36-.54.58-.79.67-.26.09-.61.12-1.01.07l-.24-.03-.16,1.33,5.85.69.15-1.33-.24-.03c-.55-.07-.94-.16-1.17-.28-.11-.06-.23-.18-.19-.52.02-.21.08-.41.16-.59.09-.21.18-.4.26-.58l1.18-2.11,5.88.69.57,1.94c.1.37.18.7.22.98.04.26.05.47.03.63-.04.3-.17.37-.21.4-.15.09-.34.13-.56.13-.24,0-.48,0-.71-.03l-.24-.03-.15,1.33,7.59.9.16-1.33-.24-.03c-.57-.07-.98-.27-1.25-.61ZM321.34,420.45l1.58,6.21-4.67-.55,3.09-5.66Z"/>
          <path class="cls-2" d="M335.11,417.75l-.4,5.15,1.38.03.04-.19c.2-.9.4-1.6.6-2.07.19-.43.47-.73.88-.9.43-.18,1.09-.26,1.98-.24l1.22.02-.21,11.67c-.01.73-.08,1.26-.19,1.59-.1.29-.28.46-.54.54-.32.1-.84.14-1.53.13h-.24s-.03,1.33-.03,1.33l8.2.15.03-1.34h-.24c-.69-.02-1.21-.08-1.54-.18-.27-.09-.44-.27-.52-.55-.09-.33-.14-.88-.12-1.6l.22-11.67,1.19.02c.9.02,1.57.12,1.98.32.39.18.67.49.84.93.18.47.36,1.18.53,2.09l.04.19,1.38.02-.13-5.16-14.81-.27Z"/>
          <path class="cls-2" d="M369.79,428.43c-.16.72-.34,1.33-.52,1.8-.17.44-.39.79-.68,1.05-.28.25-.69.45-1.22.6-.56.15-1.29.26-2.19.35l-2.91.27-.57-6.2,2.47-.23c.77-.07,1.36-.08,1.74-.02.33.05.54.19.67.44.15.28.25.77.32,1.43l.02.24,1.41-.13-.57-6.29-1.41.13.02.24c.06.63.04,1.12-.05,1.44-.08.28-.27.48-.58.61-.36.14-.93.25-1.71.32l-2.46.22-.52-5.68,3.31-.3c.97-.09,1.72-.08,2.24.03.48.1.82.32,1.05.67.25.38.47.96.65,1.72l.05.2,1.41-.13-.59-4.7-13.65,1.25-.24.02.12,1.33.24-.02c.65-.06,1.14-.05,1.46.03.27.07.46.22.58.48.14.3.23.75.29,1.36l.94,10.26c.06.62.04,1.07-.06,1.36-.08.25-.25.42-.51.51-.31.12-.78.2-1.39.26l-.24.02.12,1.33,14.12-1.29.27-5.28-1.38.12-.04.17Z"/>
          <path class="cls-2" d="M407.97,424.01c-.69.19-1.2.27-1.55.25-.29-.02-.49-.14-.64-.41-.18-.31-.36-.81-.54-1.49l-2.53-9.37c-.17-.61-.27-1.12-.29-1.49-.02-.3.08-.53.31-.71.27-.21.77-.42,1.49-.62l.23-.06-.35-1.29-7.82,2.11.35,1.29.23-.06c.7-.19,1.22-.25,1.55-.21.3.05.51.2.65.47.17.32.34.79.51,1.41l1.01,3.72-7.2,1.95-1.01-3.72c-.17-.63-.26-1.12-.27-1.48-.01-.31.09-.54.32-.73.26-.21.76-.42,1.47-.61l.23-.06-.35-1.29-7.79,2.11.35,1.29.23-.06c.7-.19,1.22-.26,1.55-.21.29.04.5.2.63.47.16.33.33.8.49,1.42l2.53,9.37c.19.69.28,1.22.29,1.58,0,.3-.1.5-.32.65-.27.18-.76.36-1.44.55l-.23.06.35,1.29,7.77-2.1-.35-1.29-.23.06c-.69.18-1.2.26-1.53.25-.28-.02-.48-.15-.62-.4-.17-.3-.35-.81-.54-1.5l-1.11-4.11,7.2-1.95,1.11,4.11c.18.68.28,1.2.3,1.56.01.29-.09.5-.32.66-.28.19-.77.38-1.47.56l-.23.06.35,1.29,7.82-2.11-.35-1.29-.23.06Z"/>
          <path class="cls-2" d="M425.61,404.46c-1.08-.93-2.36-1.5-3.78-1.69-1.42-.19-2.94.05-4.54.7-1.6.65-2.86,1.56-3.74,2.69-.88,1.14-1.39,2.46-1.51,3.94-.12,1.47.15,3.04.81,4.66.68,1.69,1.59,3.04,2.69,4,1.11.97,2.4,1.56,3.83,1.75.31.04.63.06.95.06,1.14,0,2.35-.25,3.6-.76,1.59-.64,2.83-1.56,3.7-2.72.87-1.16,1.36-2.52,1.46-4.03.1-1.5-.19-3.11-.87-4.78-.65-1.6-1.53-2.88-2.61-3.81ZM425.96,415.28c-.28,1.4-1.14,2.38-2.63,2.98-1.52.61-2.85.48-4.07-.41-1.24-.9-2.31-2.44-3.18-4.58-.84-2.07-1.1-3.86-.77-5.32.33-1.45,1.15-2.42,2.52-2.97.54-.22,1.09-.33,1.63-.33.35,0,.69.05,1.03.14.88.24,1.71.76,2.48,1.57.78.81,1.45,1.93,2.01,3.31.94,2.3,1.27,4.19.98,5.62Z"/>
          <path class="cls-2" d="M456.95,401.31c-.49.27-.89.44-1.19.48-.27.05-.5-.02-.71-.19-.24-.2-.5-.54-.77-1.02l-5.05-9.01c-.29-.52-.46-.94-.51-1.25-.05-.27.02-.51.19-.72.19-.24.54-.5,1.02-.77l.21-.12-.65-1.17-5.02,2.82,1.57,13-10.3-8.11-5.37,3.01.65,1.17.21-.12c.56-.31,1-.49,1.31-.54.28-.04.51.03.7.21.24.22.51.61.8,1.12l4.71,8.39c.41.73.66,1.29.76,1.68.09.33.04.59-.14.8-.21.24-.61.53-1.19.85l-.21.12.65,1.17,5.7-3.2-.65-1.17-.21.12c-.52.29-.94.46-1.25.51-.26.04-.51-.05-.75-.29-.29-.29-.64-.8-1.04-1.52l-4.39-7.82,11.15,8.57,1.18-.66-1.58-13.96,4.73,8.43c.27.49.44.89.51,1.19.05.25,0,.47-.17.67-.2.23-.58.51-1.12.81l-.21.12.65,1.17,6.65-3.73-.65-1.17-.21.12Z"/>
          <path class="cls-2" d="M472.21,385.8l.05.17c.23.72.39,1.32.47,1.81.08.46.06.88-.05,1.25-.11.36-.36.74-.75,1.13-.39.4-.97.88-1.7,1.41l-2.37,1.71-3.65-5.05,2.01-1.45c.63-.46,1.13-.76,1.49-.9.31-.12.57-.11.8.04.27.17.61.53,1,1.07l.14.2,1.15-.83-3.7-5.12-1.15.83.14.2c.37.52.61.95.69,1.27.07.28,0,.55-.19.82-.23.31-.67.69-1.31,1.15l-2,1.45-3.34-4.62,2.7-1.95c.79-.57,1.45-.95,1.94-1.12.47-.16.87-.15,1.24.04.41.2.89.59,1.44,1.15l.15.15,1.14-.83-2.91-3.74-11.11,8.03-.19.14.78,1.09.2-.14c.53-.38.96-.63,1.27-.72.27-.08.51-.04.74.12.27.19.59.53.94,1.02l6.04,8.35c.36.5.58.91.65,1.2.06.25,0,.48-.18.7-.21.26-.57.57-1.07.93l-.19.14.78,1.08,11.49-8.31-2.46-4.68-1.12.81Z"/>
          <path class="cls-2" d="M488.91,376.2c-.1-.87-.49-1.71-1.17-2.49-.51-.6-1.08-1.03-1.69-1.29-.61-.26-1.24-.39-1.88-.4-.63-.01-1.28.05-1.93.18-.63.13-1.26.26-1.87.39-.71.15-1.39.29-2.05.41-.62.12-1.21.13-1.72.04-.49-.09-.93-.35-1.3-.77-.43-.5-.6-1-.51-1.5.1-.52.46-1.06,1.07-1.59.82-.73,1.63-1.06,2.44-.96.83.09,1.84.56,3.01,1.39l.15.11,1-.86-3.78-4.12-.89.77.08.17c.09.18.12.33.1.44-.03.12-.09.21-.19.3-.12.11-.3.19-.53.25-.28.07-.62.2-1.05.4-.42.2-.9.54-1.46,1.02-.74.64-1.31,1.35-1.69,2.11-.38.77-.54,1.56-.48,2.35.06.79.41,1.56,1.04,2.29.63.73,1.33,1.21,2.07,1.44.73.22,1.5.28,2.3.19.78-.1,1.57-.23,2.34-.4.75-.16,1.47-.3,2.18-.44.67-.13,1.3-.14,1.87-.04.54.1,1.04.41,1.49.92.36.42.56.83.59,1.23.03.4-.06.8-.27,1.19-.22.4-.55.79-.99,1.17-.57.49-1.13.84-1.66,1.02-.52.18-1.08.17-1.73-.02-.66-.19-1.47-.63-2.4-1.28l-.15-.11-1.04.9,4.05,4.31,1.01-.87-.14-.18c-.11-.14-.17-.29-.17-.43,0-.13.04-.22.12-.29.11-.1.3-.19.56-.27.31-.09.7-.26,1.19-.51.49-.25,1.05-.65,1.72-1.23.82-.71,1.45-1.49,1.86-2.33.42-.85.58-1.72.48-2.59Z"/>
        </g>
      </g>
    </g>
  </g>
</svg>