<svg xmlns="http://www.w3.org/2000/svg" xmlns:xlink="http://www.w3.org/1999/xlink" width="126" zoomAndPan="magnify" viewBox="0 0 94.5 26.999998" height="36" preserveAspectRatio="xMidYMid meet" version="1.0"><defs><g/><clipPath id="eaff54f6ea"><path d="M 0 3 L 19 3 L 19 22 L 0 22 Z M 0 3 " clip-rule="nonzero"/></clipPath><clipPath id="99cb7a42c3"><path d="M 0 4.414062 L 17.867188 3.253906 L 19.03125 21.121094 L 1.164062 22.285156 Z M 0 4.414062 " clip-rule="nonzero"/></clipPath><clipPath id="11844db74f"><path d="M 0 4.414062 L 17.867188 3.253906 L 19.03125 21.121094 L 1.164062 22.285156 Z M 0 4.414062 " clip-rule="nonzero"/></clipPath></defs><g clip-path="url(#eaff54f6ea)"><g clip-path="url(#99cb7a42c3)"><g clip-path="url(#11844db74f)"><path fill="#00a1ff" d="M 18.664062 12.277344 C 18.992188 17.269531 15.207031 21.578125 10.214844 21.902344 C 5.222656 22.230469 0.914062 18.445312 0.589844 13.453125 C 0.265625 8.460938 4.046875 4.152344 9.039062 3.828125 C 14.03125 3.503906 18.339844 7.285156 18.664062 12.277344 Z M 6.894531 14.378906 L 4.945312 12.667969 C 4.832031 12.566406 4.703125 12.492188 4.558594 12.445312 C 4.417969 12.394531 4.269531 12.375 4.121094 12.386719 C 3.96875 12.394531 3.828125 12.433594 3.691406 12.5 C 3.554688 12.566406 3.4375 12.65625 3.339844 12.769531 C 3.238281 12.882812 3.164062 13.011719 3.117188 13.15625 C 3.066406 13.296875 3.050781 13.445312 3.058594 13.59375 C 3.070312 13.746094 3.105469 13.886719 3.171875 14.023438 C 3.238281 14.160156 3.332031 14.277344 3.445312 14.375 L 6.246094 16.835938 L 7.101562 17.589844 C 7.214844 17.6875 7.34375 17.761719 7.488281 17.808594 C 7.628906 17.859375 7.777344 17.878906 7.925781 17.867188 C 8.078125 17.859375 8.21875 17.820312 8.355469 17.753906 C 8.492188 17.6875 8.609375 17.597656 8.707031 17.484375 L 9.457031 16.628906 L 15.691406 9.523438 C 15.792969 9.410156 15.867188 9.285156 15.914062 9.140625 C 15.964844 8.996094 15.984375 8.851562 15.972656 8.699219 C 15.964844 8.550781 15.925781 8.40625 15.859375 8.273438 C 15.792969 8.136719 15.703125 8.019531 15.589844 7.917969 C 15.476562 7.820312 15.347656 7.746094 15.203125 7.699219 C 15.0625 7.648438 14.914062 7.628906 14.765625 7.640625 C 14.613281 7.648438 14.46875 7.6875 14.335938 7.753906 C 14.199219 7.820312 14.082031 7.910156 13.984375 8.023438 L 8.5 14.273438 C 8.398438 14.386719 8.28125 14.476562 8.144531 14.542969 C 8.011719 14.609375 7.867188 14.648438 7.71875 14.65625 C 7.566406 14.667969 7.421875 14.648438 7.277344 14.597656 C 7.136719 14.550781 7.007812 14.476562 6.894531 14.378906 Z M 6.894531 14.378906 " fill-opacity="1" fill-rule="nonzero"/></g></g></g><g fill="#000000" fill-opacity="1"><g transform="translate(24.983807, 19.493514)"><g><path d="M 6.375 -0.078125 L 3.8125 -0.046875 L 0.0625 -10.71875 L 2.3125 -10.75 L 5.015625 -2.796875 L 5.203125 -2.796875 L 7.671875 -10.8125 L 9.859375 -10.84375 Z M 6.375 -0.078125 "/></g></g></g><g fill="#000000" fill-opacity="1"><g transform="translate(35.15875, 19.368283)"><g><path d="M 7.9375 -3.671875 L 2.75 -3.609375 C 2.8125 -2.910156 3.015625 -2.398438 3.359375 -2.078125 C 3.710938 -1.765625 4.1875 -1.613281 4.78125 -1.625 C 5.238281 -1.625 5.609375 -1.710938 5.890625 -1.890625 C 6.179688 -2.078125 6.414062 -2.347656 6.59375 -2.703125 L 6.75 -2.703125 L 8.109375 -1.84375 C 7.847656 -1.28125 7.453125 -0.816406 6.921875 -0.453125 C 6.390625 -0.0976562 5.679688 0.0820312 4.796875 0.09375 C 3.960938 0.101562 3.238281 -0.0390625 2.625 -0.34375 C 2.007812 -0.65625 1.53125 -1.125 1.1875 -1.75 C 0.851562 -2.382812 0.679688 -3.15625 0.671875 -4.0625 C 0.660156 -4.976562 0.820312 -5.75 1.15625 -6.375 C 1.5 -7.007812 1.96875 -7.484375 2.5625 -7.796875 C 3.15625 -8.117188 3.816406 -8.285156 4.546875 -8.296875 C 5.691406 -8.304688 6.570312 -8.007812 7.1875 -7.40625 C 7.800781 -6.8125 8.113281 -5.925781 8.125 -4.75 C 8.132812 -4.332031 8.125 -4.003906 8.09375 -3.765625 Z M 6.1875 -4.96875 C 6.15625 -5.59375 6.003906 -6.039062 5.734375 -6.3125 C 5.472656 -6.59375 5.082031 -6.734375 4.5625 -6.734375 C 3.539062 -6.710938 2.945312 -6.109375 2.78125 -4.921875 Z M 6.1875 -4.96875 "/></g></g></g><g fill="#000000" fill-opacity="1"><g transform="translate(43.948199, 19.260104)"><g><path d="M 1.171875 -0.015625 L 1.078125 -8.109375 L 3.046875 -8.125 L 3.0625 -6.921875 L 3.21875 -6.90625 C 3.394531 -7.351562 3.640625 -7.679688 3.953125 -7.890625 C 4.273438 -8.109375 4.664062 -8.21875 5.125 -8.21875 C 5.582031 -8.226562 5.929688 -8.15625 6.171875 -8 L 5.84375 -6.25 L 5.6875 -6.21875 C 5.5625 -6.257812 5.4375 -6.289062 5.3125 -6.3125 C 5.1875 -6.34375 5.035156 -6.359375 4.859375 -6.359375 C 4.296875 -6.347656 3.867188 -6.144531 3.578125 -5.75 C 3.285156 -5.351562 3.144531 -4.710938 3.15625 -3.828125 L 3.203125 -0.046875 Z M 1.171875 -0.015625 "/></g></g></g><g fill="#000000" fill-opacity="1"><g transform="translate(50.289211, 19.18206)"><g><path d="M 2.0625 -9.09375 C 1.695312 -9.082031 1.394531 -9.1875 1.15625 -9.40625 C 0.925781 -9.625 0.8125 -9.910156 0.8125 -10.265625 C 0.8125 -10.609375 0.921875 -10.890625 1.140625 -11.109375 C 1.367188 -11.335938 1.664062 -11.457031 2.03125 -11.46875 C 2.28125 -11.46875 2.5 -11.414062 2.6875 -11.3125 C 2.875 -11.207031 3.023438 -11.066406 3.140625 -10.890625 C 3.253906 -10.722656 3.3125 -10.523438 3.3125 -10.296875 C 3.3125 -10.066406 3.257812 -9.859375 3.15625 -9.671875 C 3.050781 -9.484375 2.90625 -9.335938 2.71875 -9.234375 C 2.53125 -9.140625 2.3125 -9.09375 2.0625 -9.09375 Z M 1.171875 -0.015625 L 1.078125 -8.109375 L 3.109375 -8.140625 L 3.203125 -0.046875 Z M 1.171875 -0.015625 "/></g></g></g><g fill="#000000" fill-opacity="1"><g transform="translate(54.643617, 19.128467)"><g><path d="M 1.421875 -0.015625 L 1.34375 -6.5 L 0.1875 -6.484375 L 0.171875 -8.09375 L 1.328125 -8.109375 C 1.234375 -8.453125 1.1875 -8.773438 1.1875 -9.078125 C 1.175781 -9.585938 1.285156 -10.023438 1.515625 -10.390625 C 1.742188 -10.765625 2.078125 -11.046875 2.515625 -11.234375 C 2.953125 -11.429688 3.472656 -11.53125 4.078125 -11.53125 C 4.972656 -11.539062 5.640625 -11.398438 6.078125 -11.109375 L 5.625 -9.609375 L 5.484375 -9.5625 C 5.171875 -9.78125 4.773438 -9.882812 4.296875 -9.875 C 3.929688 -9.875 3.660156 -9.785156 3.484375 -9.609375 C 3.304688 -9.429688 3.21875 -9.1875 3.21875 -8.875 C 3.21875 -8.738281 3.222656 -8.613281 3.234375 -8.5 C 3.253906 -8.394531 3.296875 -8.273438 3.359375 -8.140625 L 5.65625 -8.171875 L 5.671875 -6.5625 L 3.375 -6.53125 L 3.453125 -0.046875 Z M 1.421875 -0.015625 "/></g></g></g><g fill="#000000" fill-opacity="1"><g transform="translate(60.478815, 19.056648)"><g><path d="M 2.0625 -9.09375 C 1.695312 -9.082031 1.394531 -9.1875 1.15625 -9.40625 C 0.925781 -9.625 0.8125 -9.910156 0.8125 -10.265625 C 0.8125 -10.609375 0.921875 -10.890625 1.140625 -11.109375 C 1.367188 -11.335938 1.664062 -11.457031 2.03125 -11.46875 C 2.28125 -11.46875 2.5 -11.414062 2.6875 -11.3125 C 2.875 -11.207031 3.023438 -11.066406 3.140625 -10.890625 C 3.253906 -10.722656 3.3125 -10.523438 3.3125 -10.296875 C 3.3125 -10.066406 3.257812 -9.859375 3.15625 -9.671875 C 3.050781 -9.484375 2.90625 -9.335938 2.71875 -9.234375 C 2.53125 -9.140625 2.3125 -9.09375 2.0625 -9.09375 Z M 1.171875 -0.015625 L 1.078125 -8.109375 L 3.109375 -8.140625 L 3.203125 -0.046875 Z M 1.171875 -0.015625 "/></g></g></g><g fill="#000000" fill-opacity="1"><g transform="translate(64.833221, 19.003055)"><g><path d="M 7.9375 -3.671875 L 2.75 -3.609375 C 2.8125 -2.910156 3.015625 -2.398438 3.359375 -2.078125 C 3.710938 -1.765625 4.1875 -1.613281 4.78125 -1.625 C 5.238281 -1.625 5.609375 -1.710938 5.890625 -1.890625 C 6.179688 -2.078125 6.414062 -2.347656 6.59375 -2.703125 L 6.75 -2.703125 L 8.109375 -1.84375 C 7.847656 -1.28125 7.453125 -0.816406 6.921875 -0.453125 C 6.390625 -0.0976562 5.679688 0.0820312 4.796875 0.09375 C 3.960938 0.101562 3.238281 -0.0390625 2.625 -0.34375 C 2.007812 -0.65625 1.53125 -1.125 1.1875 -1.75 C 0.851562 -2.382812 0.679688 -3.15625 0.671875 -4.0625 C 0.660156 -4.976562 0.820312 -5.75 1.15625 -6.375 C 1.5 -7.007812 1.96875 -7.484375 2.5625 -7.796875 C 3.15625 -8.117188 3.816406 -8.285156 4.546875 -8.296875 C 5.691406 -8.304688 6.570312 -8.007812 7.1875 -7.40625 C 7.800781 -6.8125 8.113281 -5.925781 8.125 -4.75 C 8.132812 -4.332031 8.125 -4.003906 8.09375 -3.765625 Z M 6.1875 -4.96875 C 6.15625 -5.59375 6.003906 -6.039062 5.734375 -6.3125 C 5.472656 -6.59375 5.082031 -6.734375 4.5625 -6.734375 C 3.539062 -6.710938 2.945312 -6.109375 2.78125 -4.921875 Z M 6.1875 -4.96875 "/></g></g></g><g fill="#000000" fill-opacity="1"><g transform="translate(73.62267, 18.894876)"><g><path d="M 4 0.109375 C 3.351562 0.117188 2.78125 -0.0234375 2.28125 -0.328125 C 1.789062 -0.640625 1.398438 -1.109375 1.109375 -1.734375 C 0.828125 -2.359375 0.679688 -3.132812 0.671875 -4.0625 C 0.660156 -4.976562 0.789062 -5.75 1.0625 -6.375 C 1.34375 -7.007812 1.734375 -7.484375 2.234375 -7.796875 C 2.742188 -8.109375 3.332031 -8.269531 4 -8.28125 C 4.507812 -8.289062 4.945312 -8.210938 5.3125 -8.046875 C 5.675781 -7.878906 5.988281 -7.613281 6.25 -7.25 L 6.40625 -7.28125 L 6.359375 -11.40625 L 8.390625 -11.4375 L 8.53125 -0.109375 L 6.5 -0.078125 L 6.484375 -1.125 L 6.328125 -1.15625 C 6.109375 -0.769531 5.800781 -0.460938 5.40625 -0.234375 C 5.019531 -0.015625 4.550781 0.0976562 4 0.109375 Z M 4.640625 -1.625 C 5.210938 -1.625 5.660156 -1.832031 5.984375 -2.25 C 6.316406 -2.664062 6.476562 -3.289062 6.46875 -4.125 C 6.457031 -4.945312 6.28125 -5.5625 5.9375 -5.96875 C 5.601562 -6.375 5.148438 -6.578125 4.578125 -6.578125 C 3.984375 -6.566406 3.53125 -6.359375 3.21875 -5.953125 C 2.90625 -5.554688 2.753906 -4.929688 2.765625 -4.078125 C 2.773438 -3.222656 2.941406 -2.597656 3.265625 -2.203125 C 3.585938 -1.804688 4.046875 -1.613281 4.640625 -1.625 Z M 4.640625 -1.625 "/></g></g></g><g fill="#000000" fill-opacity="1"><g transform="translate(83.323033, 18.775486)"><g/></g></g></svg>