<?xml version="1.0" encoding="UTF-8" standalone="no"?><!DOCTYPE svg PUBLIC "-//W3C//DTD SVG 1.1//EN" "http://www.w3.org/Graphics/SVG/1.1/DTD/svg11.dtd"><svg width="100%" height="100%" viewBox="0 0 313 317" version="1.1" xmlns="http://www.w3.org/2000/svg" xmlns:xlink="http://www.w3.org/1999/xlink" xml:space="preserve" xmlns:serif="http://www.serif.com/" style="fill-rule:evenodd;clip-rule:evenodd;stroke-linejoin:round;stroke-miterlimit:2;"><path d="M156.251,298.572c5.469,-0.126 10.716,-2.182 14.814,-5.804c4.099,-3.622 6.785,-8.577 7.582,-13.988l-45.659,0c0.82,5.558 3.631,10.63 7.91,14.27c4.28,3.641 9.735,5.603 15.353,5.522Z" style="fill:#f00;fill-rule:nonzero;"/><path d="M282.206,242.582c-8.371,-7.462 -15.699,-16.017 -21.788,-25.434c-6.647,-12.998 -10.631,-27.194 -11.719,-41.753l0,-42.882c-0.035,-5.209 -0.499,-10.406 -1.389,-15.538c-6.832,-1.366 -13.398,-3.829 -19.444,-7.292c2.304,7.42 3.475,15.147 3.472,22.917l0,42.882c1.064,17.76 5.95,35.082 14.323,50.781c5.993,9.496 13.104,18.24 21.181,26.042l-222.31,-0c8.077,-7.802 15.188,-16.546 21.181,-26.042c8.374,-15.699 13.259,-33.021 14.323,-50.781l0,-42.969c-0.046,-10.046 1.891,-20.003 5.698,-29.3c3.808,-9.296 9.412,-17.75 16.491,-24.878c7.08,-7.128 15.496,-12.79 24.767,-16.661c9.27,-3.871 19.213,-5.875 29.259,-5.897c14.703,0.011 29.076,4.36 41.32,12.5c-1.35,-4.957 -2.108,-10.056 -2.257,-15.191l-0,-5.469c-9.064,-4.459 -18.801,-7.392 -28.819,-8.681l-0,-10.937c-0,-3.074 -1.222,-6.021 -3.395,-8.194c-2.173,-2.174 -5.121,-3.395 -8.194,-3.395c-3.074,0 -6.021,1.221 -8.194,3.395c-2.174,2.173 -3.395,5.12 -3.395,8.194l0,11.371c-22.433,3.165 -42.963,14.338 -57.802,31.458c-14.838,17.12 -22.981,39.03 -22.927,61.685l0,42.882c-1.087,14.559 -5.071,28.755 -11.718,41.753c-5.983,9.396 -13.193,17.95 -21.442,25.434c-0.926,0.814 -1.668,1.815 -2.177,2.938c-0.508,1.122 -0.772,2.34 -0.774,3.573l0,11.805c0,2.302 0.915,4.51 2.543,6.138c1.627,1.628 3.835,2.543 6.138,2.543l241.319,-0c2.302,-0 4.51,-0.915 6.138,-2.543c1.628,-1.628 2.542,-3.836 2.542,-6.138l0,-11.805c-0.001,-1.233 -0.265,-2.451 -0.774,-3.573c-0.509,-1.123 -1.251,-2.124 -2.177,-2.938Z" style="fill:#7e7d7b;fill-rule:nonzero;"/><path d="M260.415,96.49c23.971,-0 43.403,-19.432 43.403,-43.403c-0,-23.971 -19.432,-43.403 -43.403,-43.403c-23.97,0 -43.403,19.432 -43.403,43.403c0,23.971 19.433,43.403 43.403,43.403Z" style="fill:#f00;fill-rule:nonzero;"/></svg>