<?xml version="1.0" encoding="UTF-8" standalone="no"?><!DOCTYPE svg PUBLIC "-//W3C//DTD SVG 1.1//EN" "http://www.w3.org/Graphics/SVG/1.1/DTD/svg11.dtd"><svg width="100%" height="100%" viewBox="0 0 317 317" version="1.1" xmlns="http://www.w3.org/2000/svg" xmlns:xlink="http://www.w3.org/1999/xlink" xml:space="preserve" xmlns:serif="http://www.serif.com/" style="fill-rule:evenodd;clip-rule:evenodd;stroke-linejoin:round;stroke-miterlimit:2;"><g><path d="M174.523,145.038c-45.582,-0 -82.533,36.995 -82.533,82.632c0,10.681 2.025,20.888 5.71,30.258l-13.987,45.701c-0.119,0.281 -0.206,0.468 -0.265,0.763l-0.018,-0.043l0.011,-0c-0.256,1.831 0.106,2.923 1.126,4.01c1.019,1.086 2.451,1.59 3.824,1.42l0,0.032l0.059,0.002c0.303,-0.038 0.603,-0.108 0.893,-0.207l43.732,-10.474c12.181,7.097 26.34,11.167 41.448,11.167c45.581,0 82.532,-36.994 82.532,-82.631c0,-45.635 -36.951,-82.63 -82.533,-82.63Z" style="fill:#7e7d7b;fill-rule:nonzero;"/><path d="M120.055,25.907c-56.846,0 -102.93,46.139 -102.93,103.055c0,13.321 2.525,26.051 7.121,37.738l-17.443,56.996c-0.148,0.35 -0.256,0.787 -0.331,1.156l-0.022,0.149l0.012,-0c-0.318,1.831 0.132,3.441 1.405,4.797c1.271,1.355 3.057,1.882 4.769,1.669c-0.001,0.004 0,-0.01 0,-0.01l0.072,-0.023c0.38,-0.053 0.753,-0.144 1.115,-0.272l54.541,-13.067c15.191,8.85 32.848,13.922 51.691,13.922c56.847,0 102.93,-46.139 102.93,-103.055c0,-56.916 -46.082,-103.055 -102.93,-103.055Z" style="fill:#e3e2dd;fill-rule:nonzero;"/><path d="M309.889,193.058l-0.012,-0.066c-0.046,-0.346 -0.128,-0.686 -0.243,-1.015l-11.891,-49.639c8.056,-13.826 12.673,-29.896 12.673,-47.045c0,-51.738 -41.992,-93.68 -93.792,-93.68c-51.8,0 -93.793,41.942 -93.793,93.68c0,51.737 41.992,93.679 93.792,93.679c12.124,-0 23.71,-2.298 34.346,-6.481l51.873,15.875c0.319,0.135 0.499,0.234 0.834,0.301l-0.081,0.021l0,-0.012c1.831,0.29 3.35,-0.121 4.583,-1.278c1.234,-1.158 1.822,-2.782 1.629,-4.341c0.003,0.001 0.082,0.001 0.082,0.001Z" style="fill:#f00;fill-rule:nonzero;"/></g></svg>