<?xml version="1.0" encoding="UTF-8" standalone="no"?><!DOCTYPE svg PUBLIC "-//W3C//DTD SVG 1.1//EN" "http://www.w3.org/Graphics/SVG/1.1/DTD/svg11.dtd"><svg width="100%" height="100%" viewBox="0 0 271 275" version="1.1" xmlns="http://www.w3.org/2000/svg" xmlns:xlink="http://www.w3.org/1999/xlink" xml:space="preserve" xmlns:serif="http://www.serif.com/" style="fill-rule:evenodd;clip-rule:evenodd;stroke-linejoin:round;stroke-miterlimit:2;"><path d="M260.667,247.957l-42.147,-42.138c11.263,-14.497 16.577,-32.743 14.861,-51.021c-1.717,-18.278 -10.336,-35.214 -24.102,-47.36c-13.766,-12.147 -31.644,-18.589 -49.994,-18.016c-18.35,0.573 -35.791,8.118 -48.772,21.1c-12.982,12.981 -20.527,30.423 -21.1,48.772c-0.573,18.35 5.869,36.228 18.015,49.994c12.147,13.766 29.083,22.385 47.361,24.102c18.278,1.717 36.523,-3.598 51.021,-14.861l42.147,42.138l12.71,-12.71Zm-98.874,-32.233c-10.666,0 -21.093,-3.163 -29.963,-9.089c-8.868,-5.926 -15.781,-14.349 -19.863,-24.203c-4.082,-9.855 -5.15,-20.699 -3.069,-31.16c2.081,-10.462 7.218,-20.072 14.76,-27.614c7.542,-7.542 17.152,-12.679 27.614,-14.76c10.461,-2.08 21.305,-1.013 31.16,3.07c9.854,4.081 18.277,10.994 24.203,19.862c5.926,8.87 9.089,19.297 9.089,29.963c-0.017,14.298 -5.704,28.006 -15.814,38.117c-10.111,10.11 -23.819,15.798 -38.117,15.814Zm-107.862,0l-35.954,0c-4.766,-0.004 -9.336,-1.9 -12.706,-5.27c-3.371,-3.371 -5.266,-7.941 -5.271,-12.707l-0,-35.954l17.977,-0l-0,35.954l35.954,0l-0,17.977Zm-53.931,-125.839l17.977,0l-0,35.954l-17.977,0l-0,-35.954Zm215.724,-35.954l-17.977,-0l0,-35.954l-35.954,0l-0,-17.977l35.954,0c4.766,0.005 9.336,1.9 12.707,5.271c3.37,3.37 5.266,7.94 5.27,12.706l0,35.954Zm-125.839,-53.931l35.954,0l0,17.977l-35.954,0l-0,-17.977Zm-71.908,53.931l-17.977,-0l-0,-35.954c0.005,-4.766 1.9,-9.336 5.271,-12.706c3.37,-3.371 7.94,-5.266 12.706,-5.271l35.954,0l-0,17.977l-35.954,0l-0,35.954Z" style="fill:#7e7d7b;fill-rule:nonzero;"/><rect x="75" y="70.833" width="195.833" height="204.167" style="fill:#fbfaf6;"/><path d="M160.287,221.875c8.088,0 16.096,-1.593 23.568,-4.688c7.472,-3.095 14.262,-7.632 19.981,-13.351c5.719,-5.719 10.256,-12.508 13.351,-19.981c3.095,-7.472 4.688,-15.48 4.688,-23.568c0,-8.089 -1.593,-16.097 -4.688,-23.57c-3.095,-7.472 -7.632,-14.261 -13.351,-19.98c-5.719,-5.719 -12.508,-10.256 -19.981,-13.351c-7.472,-3.095 -15.48,-4.688 -23.568,-4.688c-16.335,-0 -32,6.489 -43.55,18.039c-11.55,11.55 -18.039,27.215 -18.039,43.55c-0,16.334 6.489,31.999 18.039,43.549c11.55,11.55 27.215,18.039 43.55,18.039Zm72.786,-61.588c-0,19.304 -7.669,37.817 -21.319,51.467c-13.65,13.65 -32.163,21.319 -51.467,21.319c-19.305,-0 -37.818,-7.669 -51.468,-21.319c-13.65,-13.65 -21.319,-32.163 -21.319,-51.467c-0,-19.305 7.669,-37.818 21.319,-51.468c13.65,-13.65 32.163,-21.319 51.468,-21.319c19.304,-0 37.817,7.669 51.467,21.319c13.65,13.65 21.319,32.163 21.319,51.468Z" style="fill:#f00;"/><path d="M203.333,218.986c0.335,0.448 0.694,0.874 1.097,1.288l43.112,43.112c2.1,2.101 4.948,3.282 7.918,3.283c2.971,0.001 5.82,-1.178 7.921,-3.277c2.101,-2.1 3.283,-4.949 3.284,-7.919c0.001,-2.971 -1.178,-5.82 -3.278,-7.921l-43.112,-43.112c-0.4,-0.405 -0.831,-0.78 -1.288,-1.12c-4.392,5.99 -9.671,11.276 -15.654,15.677l-0,-0.011Z" style="fill:#f00;fill-rule:nonzero;"/><path d="M160.287,121.094c1.484,-0 2.908,0.59 3.958,1.64c1.05,1.05 1.64,2.474 1.64,3.958l0,27.995l27.995,0c1.485,0 2.909,0.59 3.959,1.641c1.05,1.05 1.64,2.474 1.64,3.959c0,1.484 -0.59,2.908 -1.64,3.958c-1.05,1.05 -2.474,1.64 -3.959,1.64l-27.995,0l0,27.995c0,1.485 -0.59,2.909 -1.64,3.959c-1.05,1.05 -2.474,1.64 -3.958,1.64c-1.485,0 -2.909,-0.59 -3.959,-1.64c-1.05,-1.05 -1.641,-2.474 -1.641,-3.959l0,-27.995l-27.995,0c-1.484,0 -2.908,-0.59 -3.958,-1.64c-1.05,-1.05 -1.64,-2.474 -1.64,-3.958c-0,-1.485 0.59,-2.909 1.64,-3.959c1.05,-1.05 2.474,-1.641 3.958,-1.641l27.995,0l0,-27.995c0,-1.484 0.59,-2.908 1.641,-3.958c1.05,-1.05 2.474,-1.64 3.959,-1.64Z" style="fill:#f00;"/></svg>