<?xml version="1.0" encoding="UTF-8" standalone="no"?><!DOCTYPE svg PUBLIC "-//W3C//DTD SVG 1.1//EN" "http://www.w3.org/Graphics/SVG/1.1/DTD/svg11.dtd"><svg width="100%" height="100%" viewBox="0 0 317 309" version="1.1" xmlns="http://www.w3.org/2000/svg" xmlns:xlink="http://www.w3.org/1999/xlink" xml:space="preserve" xmlns:serif="http://www.serif.com/" style="fill-rule:evenodd;clip-rule:evenodd;stroke-linejoin:round;stroke-miterlimit:2;"><g><clipPath id="_clip1"><rect x="2.083" y="1.003" width="312.5" height="304.167"/></clipPath><g clip-path="url(#_clip1)"><path d="M16.288,305.17l198.864,-0c7.831,-0 14.204,-6.397 14.204,-14.258l0,-71.289c0,-0.095 -0.047,-0.171 -0.057,-0.266c0.521,-0.333 1.061,-0.647 1.572,-0.998l75.625,75.908c0.436,0.455 0.958,0.818 1.536,1.067c0.577,0.25 1.198,0.382 1.827,0.388c0.628,0.007 1.252,-0.112 1.834,-0.351c0.582,-0.238 1.112,-0.59 1.557,-1.036c0.445,-0.445 0.797,-0.975 1.036,-1.559c0.239,-0.584 0.36,-1.209 0.355,-1.84c-0.004,-0.631 -0.134,-1.255 -0.381,-1.835c-0.248,-0.581 -0.608,-1.106 -1.059,-1.544l-74.934,-75.215c6.149,-5.759 11.053,-12.725 14.407,-20.466c3.354,-7.74 5.087,-16.091 5.091,-24.532c-0.009,-10.372 -2.622,-20.574 -7.597,-29.665c-4.976,-9.091 -12.153,-16.777 -20.869,-22.347c0.01,-0.095 0.057,-0.172 0.057,-0.267l0,-23.763c0,-0.161 -0.076,-0.294 -0.085,-0.446c-0.019,-0.219 -0.076,-0.409 -0.123,-0.618c-0.149,-0.661 -0.44,-1.28 -0.853,-1.816c-0.066,-0.085 -0.056,-0.19 -0.123,-0.275l-75.757,-85.547c-0.029,-0.029 -0.067,-0.029 -0.095,-0.057c-0.577,-0.608 -1.306,-1.048 -2.112,-1.274c-0.18,-0.057 -0.341,-0.076 -0.53,-0.104c-0.275,-0.048 -0.53,-0.162 -0.814,-0.162l-132.576,0c-7.832,0 -14.205,6.397 -14.205,14.258l0,275.651c0,7.861 6.373,14.258 14.205,14.258Zm232.007,-137.826c0,28.829 -23.371,52.279 -52.083,52.279c-28.712,-0 -52.083,-23.45 -52.083,-52.279c-0,-28.829 23.371,-52.279 52.083,-52.279c28.712,0 52.083,23.45 52.083,52.279Zm-94.697,-149.089l60.483,68.295l-55.748,-0c-2.083,-0 -4.735,-3.993 -4.735,-7.129l0,-61.166Zm-142.045,-2.994c0,-1.261 0.499,-2.47 1.387,-3.361c0.888,-0.891 2.092,-1.392 3.348,-1.392l127.841,0l-0,68.913c-0,7.69 6.202,16.634 14.204,16.634l61.553,-0l0,14.267c-11.438,-4.802 -24.058,-6.012 -36.195,-3.468c-12.136,2.544 -23.22,8.721 -31.788,17.717l-97.736,-0c-1.256,-0 -2.46,0.5 -3.348,1.392c-0.888,0.891 -1.387,2.1 -1.387,3.36c-0,1.261 0.499,2.469 1.387,3.361c0.888,0.891 2.092,1.392 3.348,1.392l90.265,-0c-5.488,8.562 -8.762,18.363 -9.527,28.516l-80.738,-0c-1.256,-0 -2.46,0.5 -3.348,1.392c-0.888,0.891 -1.387,2.1 -1.387,3.36c-0,1.261 0.499,2.469 1.387,3.361c0.888,0.891 2.092,1.392 3.348,1.392l80.729,-0c0.769,10.151 4.043,19.951 9.526,28.516l-90.255,-0c-1.256,-0 -2.46,0.5 -3.348,1.392c-0.888,0.891 -1.387,2.1 -1.387,3.36c-0,1.26 0.499,2.469 1.387,3.36c0.888,0.892 2.092,1.393 3.348,1.393l97.064,-0c0.199,-0 0.369,-0.086 0.568,-0.115c8.565,9.034 19.661,15.243 31.82,17.806c12.158,2.564 24.806,1.359 36.267,-3.453l0,66.556c0,1.261 -0.499,2.469 -1.386,3.361c-0.888,0.891 -2.093,1.392 -3.348,1.392l-198.864,-0c-2.652,-0 -4.735,-2.092 -4.735,-4.753l0,-275.651Z" style="fill:#7e7d7b;fill-rule:nonzero;"/><path d="M54.165,96.055l56.818,0c1.256,0 2.46,-0.5 3.348,-1.392c0.888,-0.891 1.387,-2.1 1.387,-3.361c0,-1.26 -0.499,-2.469 -1.387,-3.36c-0.888,-0.892 -2.092,-1.392 -3.348,-1.392l-56.818,-0c-1.255,-0 -2.46,0.5 -3.348,1.392c-0.888,0.891 -1.387,2.1 -1.387,3.361c0,1.26 0.499,2.469 1.387,3.36c0.888,0.892 2.093,1.392 3.348,1.392Zm-0,152.083l123.106,0c1.256,0 2.46,-0.5 3.348,-1.392c0.888,-0.891 1.387,-2.1 1.387,-3.36c0,-1.261 -0.499,-2.469 -1.387,-3.361c-0.888,-0.891 -2.092,-1.392 -3.348,-1.392l-123.106,0c-1.255,0 -2.46,0.501 -3.348,1.392c-0.888,0.892 -1.387,2.1 -1.387,3.361c0,1.26 0.499,2.469 1.387,3.36c0.888,0.892 2.093,1.392 3.348,1.392Z" style="fill:#f00;fill-rule:nonzero;"/></g></g></svg>